<svg version="1.2" baseProfile="tiny-ps" xmlns="http://www.w3.org/2000/svg" viewBox="0 0 901 508"><defs><clipPath clipPathUnits="userSpaceOnUse" id="cp1"><path d="M228.57 239.74l-77.82-.56s3.49-4.54 11.77-4.54c.46 0 .94.01 1.43.04 0 0 6.57-4.11 15.44-4.11 3.84 0 8.11.77 12.47 2.99 0 0 4.1-.49 9.62-.49 5.16 0 11.56.42 17.03 2.06 7.56 2.25 10.06 4.61 10.06 4.61"/></clipPath></defs><style>.shp2{fill:#f2ccaa}.shp3{fill:#f9ddbf}.shp4{fill:#ddaf8a}.shp5{fill:#fff2e6}.shp6{fill:#fff}.shp7{fill:#ed7d2b}.shp8{fill:#f49540}.shp9{fill:#dba579}.shp14{fill:#ffb27d}.shp15{fill:#bc3f3f}.shp16{fill:#233862}.shp17{fill:#ed985f}.shp18{fill:#2c3a64}.shp19{fill:#2b478b}.shp20{fill:#f99746}.shp21{fill:#e8945b}.shp23{fill:#e58638}.shp25{fill:#d37129}.shp26{fill:#ec8432}.shp29{fill:#1c468a}.shp30{fill:#f8fcff}.shp32{fill:#82b378}.shp33{fill:#d36d1a}.shp34{fill:#ffa255}.shp35{fill:#a53d38}.shp37{fill:#ffb93e}.shp38{fill:#ffa412}.shp39{fill:#163560}.shp40{fill:#466aa5}.shp41{fill:#ee9849}.shp42{fill:#d17a33}.shp47{fill:#ebf3fa}.shp48{fill:#b5453c}.shp49{fill:#f4a269}.shp50{fill:#c65447}.shp51{fill:#265caa}.shp53{fill:#efdece}.shp56{fill:#9e332e}.shp57{fill:#182e51}</style><g id="g10"><g id="g12"><g id="g18"><path id="path20" d="M898.15 466.09c-.63 2.66-1.33 5.41-2.12 8.15-.71 2.75-1.64 5.65-2.66 8.56-.48 1.41-103.88 25.25-103.88 25.25l-27.29-.07H517.75l-71.39-.08h-188.2l-78.61-.08H64.01c-16.18 0-30.6-10.27-35.87-25.58-.46-1.31-.87-2.55-1.25-3.68-2.16-6.68-4.53-14.35-6.94-22.82-1.19-4.16-2.39-8.51-3.57-13.03-1.17-4.47-2.33-9.1-3.45-13.89-.24-1.01-.48-2.03-.71-3.05-.12-.49-.23-.99-.34-1.48l-.01-.03c-.9-3.94-1.79-8.04-2.63-12.15-3.52-16.93-6.49-35.14-8.25-53.83-1.46-15.52-2.08-31.35-1.48-47.05.15-3.69.39-7.37.63-11.06.62-7.84 1.56-15.69 2.9-23.29.86-5.18 1.96-10.36 3.21-15.38 3.07-12.32 7.22-24.08 12.71-35.22 1.97-3.84 4.01-7.61 6.28-11.3a383.46 383.46 0 0115.54-23.61h.07c2.75-3.92 5.5-7.61 8.24-11.14 10.28-13.33 20.71-24.79 31.23-34.67 70.41-65.88 146.45-61.12 215.89-56.37 57.82 3.96 111.06 7.91 152.66-28.9 89.51-79.15 257-80.33 331.92-7.3 1.41 1.41 2.9 2.83 4.31 4.39 6.09 6.47 11.49 13.48 16.07 21.03 2.12 3.49 4.08 7.1 5.84 10.84 10.75 22.67 14.73 49.61 9.57 80.76-.98 5.95-2.31 12.06-3.98 18.32l-.12.45c-3.24 11.93-7.72 24.35-13.58 37.44-.38.85-.77 1.71-1.17 2.57-.62 1.33-1.25 2.67-1.88 4-14.67 30.68-10.17 52.55 3.05 71.1 5.23 7.35 11.83 14.18 19.15 20.84 15.92 14.51 35.15 28.16 51.15 44.47 2.11 2.2 4.16 4.4 6.2 6.68.84.97 1.67 1.95 2.49 2.94 2.08 2.51 4.07 5.08 5.98 7.72l.33.48c7.49 10.71 13.12 22.7 15.61 36.67.04.19.07.38.1.57l.01.03c2.1 12.27 1.8 26.05-1.77 41.8" fill="#dceaff"/></g><path id="path22" d="M267.47 427.08H120.14s-10.52-2.64-8.93-25.6c1.58-22.76 17.66-63.86 45.77-63.86.27 0 .54.01.8.01.52.02 1.03.03 1.53.03 26.74 0 17.84-20.64 35.83-37.55 10.73-10.08 31.45-12.17 46.78-12.17 10.84 0 18.98 1.05 18.98 1.05l.59 12.34v90.15h-6.06v32.99h11.91l.13 2.61z" fill="#bbdbc7"/><g id="g24"><path id="path26" class="shp2" d="M887.2 423.9H261.49V188.33H812.6l-.12.45c-3.24 11.93-7.72 24.35-13.58 37.44-.39.85-.77 1.71-1.17 2.57-.63 1.33-1.25 2.67-1.88 4-14.67 30.68-10.17 52.55 3.05 71.1 5.23 7.35 11.83 14.18 19.15 20.84 15.92 14.51 35.15 28.16 51.15 44.48 2.11 2.19 4.16 4.39 6.19 6.67.85.97 1.67 1.95 2.5 2.94 2.07 2.51 4.06 5.08 5.97 7.72.11.16.23.32.33.48l3.01 36.88"/></g><path id="path28" class="shp3" d="M403.47 417.85h-63.73V188.33h63.73v229.52z"/><g id="g30"><path id="path32" class="shp4" d="M871.52 424.47H255.43v-32.99h616.09v32.99z"/></g><g id="g34"><path id="path36" class="shp3" d="M795.85 232.79c-14.67 30.68-10.17 52.55 3.04 71.11v113.95h-63.73V188.33h63.73v37.89c-.38.85-.77 1.71-1.16 2.57-.62 1.33-1.25 2.67-1.88 4z"/></g><g id="g38"><path id="path40" class="shp3" d="M636.7 421.23H484.43V155.79H636.7v265.44z"/></g><g id="g42"><path id="path44" class="shp5" d="M461.15 314.62h-21.32v-7.54h21.32v7.54z"/></g><g id="g46"><path id="path48" class="shp5" d="M456.37 423.89h-11.75V314.62h11.75v109.27z"/></g><g id="g50"><path id="path52" class="shp4" d="M444.62 319.56s1.73-3.24 5.87-3.09c4.51.17 5.88 3.09 5.88 3.09v-4.94h-11.75v4.94z"/></g><g id="g54"><path id="path56" class="shp4" d="M461.15 308.38h-21.32v-1.31h21.32v1.31z"/></g><g id="g58"><path id="path60" class="shp5" d="M521.06 314.62h-21.33v-7.55h21.33v7.55z"/></g><g id="g62"><path id="path64" class="shp5" d="M516.27 423.89h-11.75V314.62h11.75v109.27z"/></g><g id="g66"><path id="path68" class="shp4" d="M504.52 319.56s1.73-3.24 5.87-3.09c4.51.17 5.88 3.09 5.88 3.09v-4.94h-11.75v4.94"/></g><g id="g70"><path id="path72" class="shp4" d="M521.06 308.38h-21.33v-1.31h21.33v1.31z"/></g><g id="g74"><path id="path76" class="shp5" d="M623.22 314.62H601.9v-7.54h21.32v7.54z"/></g><g id="g78"><path id="path80" class="shp5" d="M618.44 423.89h-11.75V314.62h11.75v109.27z"/></g><g id="g82"><path id="path84" class="shp4" d="M606.69 319.56s1.73-3.24 5.87-3.09c4.51.17 5.88 3.09 5.88 3.09v-4.94h-11.75v4.94z"/></g><g id="g86"><path id="path88" class="shp4" d="M623.22 308.38H601.9v-1.31h21.32v1.31z"/></g><g id="g90"><path id="path92" class="shp5" d="M689.33 314.62H668v-7.54h21.33v7.54z"/></g><g id="g94"><path id="path96" class="shp5" d="M684.54 423.89h-11.75V314.62h11.75v109.27z"/></g><g id="g98"><path id="path100" class="shp4" d="M672.79 319.56s1.74-3.24 5.88-3.09c4.51.17 5.87 3.09 5.87 3.09v-4.94h-11.75v4.94"/></g><g id="g102"><path id="path104" class="shp4" d="M689.33 308.38H668v-1.31h21.33v1.31z"/></g><g id="g106"><path id="path108" class="shp2" d="M586.49 423.44h-50.15v-61.18c0-13.6 11.03-24.63 24.63-24.63h2.32c12.81 0 23.2 10.39 23.2 23.2v62.61z"/></g><path id="path110" class="shp4" d="M313.71 265.17h-25.29v-27.63c0-6.55 5.31-11.86 11.86-11.86h2.25c6.18 0 11.18 5 11.18 11.18v28.31"/><path id="path112" fill-rule="evenodd" class="shp6" d="M314.61 236.86v29.21h-27.1v-28.53c0-7.04 5.73-12.76 12.77-12.76h2.25c6.66 0 12.08 5.41 12.08 12.08zm-25.29.37v27.04h23.49v-27.41c0-5.67-4.61-10.28-10.28-10.28h-2.25c-5.94 0-10.79 4.75-10.96 10.65z"/><path id="path114" class="shp6" d="M313.3 238.94h-24.69v-1.71h24.69v1.71z"/><path id="path116" class="shp6" d="M301.79 265.03h-1.66v-26.94h1.66v26.94z"/><path id="path118" class="shp4" d="M294.73 215.26s5.4-1.81 13.77 0l-2.92 7.24s-3.99-.53-7.92 0l-2.93-7.24z"/><path id="path120" class="shp4" d="M296.59 222.68l-3.15-6.14s-3.43.7-4.67 2.04l5.23 4.75 2.59-.65"/><path id="path122" class="shp4" d="M306.61 222.71l2.87-6.07s2.99.29 4.68 2.04l-5.19 4.65-2.36-.62"/><path id="path124" class="shp4" d="M383.32 265.17h-25.3v-27.63c0-6.55 5.31-11.86 11.87-11.86h2.25c6.17 0 11.18 5 11.18 11.18v28.31"/><path id="path126" fill-rule="evenodd" class="shp6" d="M384.22 236.86v29.21h-27.1v-28.53c0-7.04 5.73-12.76 12.77-12.76h2.25c6.66 0 12.08 5.41 12.08 12.08zm-25.29.37v27.04h23.48v-27.41c0-5.67-4.61-10.28-10.27-10.28h-2.25c-5.94 0-10.79 4.75-10.96 10.65z"/><path id="path128" class="shp6" d="M382.9 238.94h-24.68v-1.71h24.68v1.71z"/><path id="path130" class="shp6" d="M371.39 265.03h-1.66v-26.94h1.66v26.94z"/><path id="path132" class="shp4" d="M364.33 215.26s5.4-1.81 13.77 0l-2.91 7.24s-3.99-.53-7.93 0l-2.93-7.24z"/><path id="path134" class="shp4" d="M366.2 222.68l-3.15-6.14s-3.44.7-4.68 2.04l5.23 4.75 2.6-.65"/><path id="path136" class="shp4" d="M376.22 222.71l2.87-6.07s2.99.29 4.67 2.04l-5.18 4.65-2.36-.62"/><path id="path138" class="shp4" d="M313.71 365.57h-25.29v-27.63c0-6.55 5.31-11.86 11.86-11.86h2.25c6.18 0 11.18 5 11.18 11.18v28.31"/><path id="path140" fill-rule="evenodd" class="shp6" d="M314.61 337.26v29.21h-27.1v-28.53c0-7.04 5.73-12.76 12.77-12.76h2.25c6.66 0 12.08 5.41 12.08 12.08zm-25.29.37v27.04h23.49v-27.41c0-5.67-4.61-10.28-10.28-10.28h-2.25c-5.94 0-10.79 4.75-10.96 10.65z"/><path id="path142" class="shp6" d="M313.3 339.34h-24.69v-1.71h24.69v1.71z"/><path id="path144" class="shp6" d="M301.79 365.43h-1.66v-26.94h1.66v26.94z"/><path id="path146" class="shp4" d="M294.73 315.66s5.4-1.81 13.77 0l-2.92 7.24s-3.99-.53-7.92 0l-2.93-7.24z"/><path id="path148" class="shp4" d="M296.59 323.08l-3.15-6.14s-3.43.7-4.67 2.04l5.23 4.75 2.59-.65"/><path id="path150" class="shp4" d="M306.61 323.11l2.87-6.07s2.99.3 4.68 2.04l-5.19 4.65-2.36-.62z"/><path id="path152" class="shp4" d="M383.32 365.57h-25.3v-27.63c0-6.55 5.31-11.86 11.87-11.86h2.25c6.17 0 11.18 5 11.18 11.18v28.31"/><path id="path154" fill-rule="evenodd" class="shp6" d="M384.22 337.26v29.21h-27.1v-28.53c0-7.04 5.73-12.76 12.77-12.76h2.25c6.66 0 12.08 5.41 12.08 12.08zm-25.29.37v27.04h23.48v-27.41c0-5.67-4.61-10.28-10.27-10.28h-2.25c-5.94 0-10.79 4.75-10.96 10.65z"/><path id="path156" class="shp6" d="M382.9 339.34h-24.68v-1.71h24.68v1.71z"/><path id="path158" class="shp6" d="M371.39 365.43h-1.66v-26.94h1.66v26.94z"/><path id="path160" class="shp4" d="M364.33 315.66s5.4-1.81 13.77 0l-2.91 7.24s-3.99-.53-7.93 0l-2.93-7.24z"/><path id="path162" class="shp4" d="M366.2 323.08l-3.15-6.14s-3.44.7-4.68 2.04l5.23 4.75 2.6-.65"/><path id="path164" class="shp4" d="M376.22 323.11l2.87-6.07s2.99.3 4.67 2.04l-5.18 4.65-2.36-.62z"/><g id="g166"><path id="path168" class="shp4" d="M457.26 265.17h-25.29v-27.63c0-6.55 5.31-11.86 11.86-11.86h2.25c6.18 0 11.18 5 11.18 11.18v28.31z"/></g><g id="g170"><path id="path172" fill-rule="evenodd" class="shp6" d="M446.08 224.78c6.66 0 12.08 5.42 12.08 12.08v29.22h-27.1v-28.54c0-7.04 5.73-12.76 12.77-12.76h2.25zm-2.25 1.81c-5.94 0-10.79 4.74-10.95 10.64-.01.11-.01.21-.01.31v26.73h23.49v-27.41c0-5.67-4.61-10.27-10.28-10.27h-2.25z"/></g><g id="g174"><path id="path176" class="shp6" d="M456.85 238.94h-24.68v-1.7h24.68v1.7z"/></g><path id="path178" class="shp6" d="M445.34 265.03h-1.66v-26.94h1.66v26.94z"/><path id="path180" class="shp4" d="M438.28 215.26s5.4-1.81 13.77 0l-2.91 7.24s-3.99-.53-7.93 0l-2.93-7.24z"/><path id="path182" class="shp4" d="M440.15 222.68l-3.15-6.14s-3.44.7-4.68 2.04l5.23 4.75 2.6-.65"/><g id="g184"><path id="path186" class="shp4" d="M450.17 222.71l2.87-6.07s2.98.29 4.67 2.04l-5.18 4.64-2.36-.61"/></g><g id="g188"><path id="path190" class="shp4" d="M578.09 252.62h-33.34v-36.43c0-8.64 7-15.64 15.64-15.64h2.97c8.13 0 14.73 6.59 14.73 14.73v37.34"/></g><g id="g192"><path id="path194" fill-rule="evenodd" class="shp6" d="M579.28 215.28v38.53h-35.72v-37.62c0-9.28 7.55-16.83 16.83-16.83h2.96c8.79 0 15.93 7.14 15.93 15.92zm-18.89-13.54c-7.84 0-14.23 6.26-14.45 14.04V251.42h30.96v-36.14c0-7.47-6.07-13.54-13.55-13.54h-2.96z"/></g><g id="g196"><path id="path198" class="shp6" d="M577.55 218.03h-32.54v-2.25h32.54v2.25z"/></g><g id="g200"><path id="path202" class="shp6" d="M562.37 252.43h-2.19v-35.52h2.19v35.52"/></g><g id="g204"><path id="path206" class="shp4" d="M604.92 252.92h-24.75v-27.04c0-6.41 5.19-11.61 11.61-11.61h2.2c6.04 0 10.94 4.9 10.94 10.94v27.71"/></g><g id="g208"><path id="path210" fill-rule="evenodd" class="shp6" d="M593.98 213.39c6.52 0 11.82 5.3 11.82 11.82v28.6h-26.52v-27.93c0-6.89 5.61-12.49 12.49-12.49h2.21zm-12.93 12.19v26.46h22.98v-26.83c0-5.54-4.51-10.05-10.05-10.05h-2.21c-5.81 0-10.56 4.65-10.72 10.42z"/></g><g id="g212"><path id="path214" class="shp6" d="M604.52 227.25h-24.16v-1.67h24.16v1.67z"/></g><g id="g216"><path id="path218" class="shp6" d="M593.25 252.78h-1.63v-26.36h1.63v26.36"/></g><g id="g220"><path id="path222" class="shp4" d="M542.67 252.92h-24.75v-27.04c0-6.41 5.2-11.61 11.61-11.61h2.2c6.04 0 10.94 4.9 10.94 10.94v27.71"/></g><g id="g224"><path id="path226" fill-rule="evenodd" class="shp6" d="M543.55 225.21v28.6h-26.52v-27.93c0-6.89 5.61-12.49 12.5-12.49h2.2c6.52 0 11.82 5.3 11.82 11.82zm-24.74.37c-.01.1-.01.2-.01.3v26.16h22.99v-26.83c0-5.55-4.52-10.06-10.06-10.06h-2.2c-5.82 0-10.57 4.65-10.72 10.43z"/></g><g id="g228"><path id="path230" class="shp6" d="M542.27 227.25h-24.16v-1.67h24.16v1.67z"/></g><g id="g232"><path id="path234" class="shp6" d="M531 252.78h-1.63v-26.36H531v26.36z"/></g><g id="g236"><path id="path238" class="shp4" d="M698.8 265.17h-25.29v-27.63c0-6.55 5.31-11.86 11.87-11.86h2.25c6.17 0 11.17 5 11.17 11.17v28.32z"/></g><g id="g240"><path id="path242" fill-rule="evenodd" class="shp6" d="M687.62 224.78c6.67 0 12.09 5.41 12.09 12.08v29.21h-27.1v-28.53c0-7.04 5.73-12.76 12.76-12.76h2.25zm-13.2 12.45v27.04h23.48v-27.41c0-5.67-4.61-10.28-10.28-10.28h-2.25c-5.94 0-10.79 4.75-10.95 10.65z"/></g><g id="g244"><path id="path246" class="shp6" d="M698.39 238.94h-24.68v-1.71h24.68v1.71z"/></g><g id="g248"><path id="path250" class="shp6" d="M686.88 265.03h-1.66v-26.94h1.66v26.94z"/></g><g id="g252"><path id="path254" class="shp4" d="M679.82 215.26s5.4-1.81 13.77 0l-2.91 7.24s-3.99-.53-7.93 0l-2.93-7.24"/></g><g id="g256"><path id="path258" class="shp4" d="M681.69 222.68l-3.15-6.14s-3.44.7-4.68 2.04l5.23 4.75 2.6-.65"/></g><g id="g260"><path id="path262" class="shp4" d="M691.7 222.71l2.87-6.07s3 .3 4.68 2.04l-5.18 4.65-2.37-.62z"/></g><g id="g264"><path id="path266" class="shp4" d="M780.15 265.17h-25.29v-27.63c0-6.55 5.31-11.86 11.87-11.86h2.24c6.18 0 11.18 5 11.18 11.18v28.31"/></g><g id="g268"><path id="path270" fill-rule="evenodd" class="shp6" d="M781.05 236.86v29.21h-27.1v-28.53c0-7.04 5.73-12.76 12.77-12.76h2.25c6.66 0 12.08 5.42 12.08 12.08zm-25.28.37c-.01.1-.01.21-.01.31v26.73h23.48v-27.41c0-5.67-4.6-10.28-10.27-10.28h-2.25c-5.94 0-10.79 4.75-10.95 10.65z"/></g><g id="g272"><path id="path274" class="shp6" d="M779.74 238.94h-24.69v-1.71h24.69v1.71z"/></g><g id="g276"><path id="path278" class="shp6" d="M768.23 265.03h-1.66v-26.94h1.66v26.94z"/></g><g id="g280"><path id="path282" class="shp4" d="M761.17 215.26s5.4-1.81 13.77 0l-2.91 7.24s-3.99-.53-7.93 0l-2.93-7.24z"/></g><g id="g284"><path id="path286" class="shp4" d="M763.03 222.68l-3.14-6.14s-3.44.7-4.68 2.04l5.23 4.75 2.59-.65"/></g><g id="g288"><path id="path290" class="shp4" d="M773.05 222.71l2.87-6.07s2.99.3 4.68 2.04l-5.19 4.65-2.36-.62z"/></g><g id="g292"><path id="path294" class="shp4" d="M780.15 365.57h-25.29v-27.63c0-6.55 5.31-11.86 11.87-11.86h2.24c6.18 0 11.18 5 11.18 11.18v28.31"/></g><g id="g296"><path id="path298" fill-rule="evenodd" class="shp6" d="M768.97 325.18c6.66 0 12.08 5.41 12.08 12.08v29.21h-27.1v-28.53c0-7.04 5.73-12.76 12.77-12.76h2.25zm-2.25 1.8c-5.94 0-10.79 4.75-10.95 10.65-.01.1-.01.21-.01.31v26.73h23.48v-27.41c0-5.67-4.6-10.28-10.27-10.28h-2.25z"/></g><g id="g300"><path id="path302" class="shp6" d="M779.74 339.34h-24.69v-1.71h24.69v1.71z"/></g><g id="g304"><path id="path306" class="shp6" d="M768.23 365.43h-1.66v-26.94h1.66v26.94z"/></g><g id="g308"><path id="path310" class="shp4" d="M761.17 315.66s5.4-1.81 13.77 0l-2.91 7.24s-3.99-.53-7.93 0l-2.93-7.24z"/></g><g id="g312"><path id="path314" class="shp4" d="M763.03 323.08l-3.14-6.14s-3.44.7-4.68 2.04l5.23 4.75 2.59-.65z"/></g><g id="g316"><path id="path318" class="shp4" d="M773.05 323.11l2.87-6.07s2.99.3 4.68 2.04l-5.19 4.65-2.36-.62z"/></g><g id="g320"><path id="path322" class="shp7" d="M484.43 188.32H240.38L261.49 170h222.94v18.32z"/></g><g id="g324"><path id="path326" class="shp7" d="M816.58 170.01c-.99 5.95-2.31 12.06-3.98 18.32H636.7v-18.32h179.88"/></g><g id="g328"><path id="path330" class="shp5" d="M697.4 307.07H432.11v-9H697.4v9z"/></g><g id="g332"><path id="path334" class="shp8" d="M485.08 146.45h-9.45l85.26-71.74 86.04 71.74H485.08z"/></g><g id="g336"><path id="path338" class="shp5" d="M432.11 298.07l132.64-25.46 132.65 25.46H432.11z"/></g><g id="g340"><path id="path342" class="shp2" d="M470.13 298.07l94.62-18.17 94.63 18.17H470.13z"/></g><g id="g344"><path id="path346" class="shp3" d="M636.7 155.79H485.08v-9.34l75.53-62.3 76.09 62.3v9.34z"/></g><g id="g348"><path id="path350" class="shp9" d="M557.31 104.18a4.11 4.11 0 118.22 0 4.11 4.11 0 01-8.22 0z"/></g><g id="g352"><path id="path354" class="shp9" d="M557.31 322.84a4.11 4.11 0 118.22 0 4.11 4.11 0 01-8.22 0z"/></g><g id="g356"><path id="path358" class="shp5" d="M685.93 414.7H435.71v-3.87h250.22v3.87z"/></g><g id="g360"><path id="path362" d="M700.45 418.56H421.19v-3.86h279.26v3.86z" fill="#f7e6d7"/></g><g id="g364"><path id="path366" d="M715.58 423.9H406.06v-5.34h309.52v5.34z" fill="#f4ddcb"/></g><g id="g368"><path id="path370" class="shp4" d="M574.06 180.7h-25.29v-27.63c0-6.55 5.31-11.86 11.86-11.86h2.25c6.18 0 11.18 5 11.18 11.18v28.31"/></g><g id="g372"><path id="path374" fill-rule="evenodd" class="shp6" d="M573.4 146.45c1 1.75 1.56 3.78 1.56 5.94v29.21h-27.09v-28.53c0-2.42.68-4.69 1.85-6.62 2.25-3.68 6.3-6.14 10.91-6.14h2.25c4.51 0 8.45 2.47 10.52 6.14zm-.24 5.94c0-2.22-.7-4.26-1.9-5.94a10.266 10.266 0 00-8.38-4.34h-2.25c-3.55 0-6.72 1.71-8.72 4.34a10.81 10.81 0 00-2.23 6.32c-.01.09-.01.2-.01.3v26.73h23.49v-27.41z"/></g><g id="g376"><path id="path378" class="shp6" d="M573.65 154.47h-24.68v-1.71h24.68v1.71z"/></g><g id="g380"><path id="path382" class="shp6" d="M562.14 180.56h-1.66v-26.94h1.66v26.94z"/></g><g id="g384"><path id="path386" class="shp4" d="M555.08 130.79s5.4-1.81 13.77 0l-2.91 7.25s-4-.54-7.93 0l-2.93-7.25z"/></g><g id="g388"><path id="path390" class="shp4" d="M556.94 138.21l-3.14-6.14s-3.44.7-4.68 2.04l5.23 4.75 2.59-.65"/></g><g id="g392"><path id="path394" class="shp4" d="M566.96 138.24l2.87-6.07s2.99.29 4.68 2.04l-5.19 4.65-2.36-.62z"/></g><path id="path396" d="M141.7 428.99s-93.13-.3-128.77-.17c-.25-1.01-.48-2.03-.71-3.05-.12-.49-.23-.99-.34-1.48l-.01-.03c-.9-3.94-1.8-8.04-2.63-12.14-3.52-16.94-6.49-35.15-8.25-53.84 7.44-2.13 37.44-9.7 56.85.51 22.28 11.73 18.58 29.15 40.08 24.25 21.49-4.9 57.27 13.53 43.78 45.95" fill="#9bcc8f"/><g id="g398"><path id="path400" d="M901.07 445.87c-.36 6.36-1.3 13.09-2.92 20.22-.15.65-.31 1.31-.47 1.97-.51 2.04-1.06 4.11-1.65 6.18-.7 2.75-1.64 5.65-2.67 8.56-.16.5-1.52 3.79-3.21 7.83a28.363 28.363 0 01-26.17 17.42H789.5l-27.3-.07H517.75l-39.73-.05-31.66-.03h-188.2l-78.61-.08H64.01c-16.18 0-30.6-10.27-35.87-25.58-.45-1.31-.88-2.55-1.25-3.68-1.46-4.51-3.01-9.49-4.62-14.85-1.55-5.19-3.14-10.75-4.73-16.63-.39-1.44-.78-2.89-1.16-4.37-1.41-5.42-2.83-11.06-4.16-16.94-.12-.49-.23-.99-.34-1.48l-.01-.03h888.04l.01.03c1.15 6.71 1.58 13.88 1.15 21.58z" fill="#a8d29f"/></g><g id="g402"><path id="path404" class="shp3" d="M464.75 456.45l-50.6 51.45h63.54l39.45-44.19-52.39-7.26"/></g><g id="g406"><path id="path408" class="shp14" d="M481.9 403.91l-.47 1.98-.62 2.63h-1.96l-.11-2.52-.1-1.94 3.26-.15"/></g><g id="g410"><path id="path412" class="shp15" d="M488.1 360.71s1.55-1.66 2.55-.36c1.01 1.3 2.13 2.18 3.67 3.18s-1.36 8.83-3.3 8.67c-1.93-.17-9.83-6.34-2.92-11.49"/></g><g id="g414"><path id="path416" class="shp7" d="M480.39 359.92c.39-.29 3.95-1.51 7.42-.31 3.47 1.21-2.69 4.55-2.69 4.55l-1.99.09-2.74-4.33z"/></g><g id="g418"><path id="path420" class="shp16" d="M478.08 411.41s0-.95.13-1.27c.14-.32.64-1.62.64-1.62h1.96s.36 1.19.38 1.57c.03.39 0 1.32 0 1.32h-3.11z"/></g><g id="g422"><path id="path424" class="shp16" d="M490.5 411.42s0-.96-.14-1.28c-.14-.32-.64-1.61-.64-1.61h-1.96s-.36 1.18-.38 1.56c-.03.39 0 1.33 0 1.33h3.12z"/></g><g id="g426"><path id="path428" class="shp14" d="M482.66 357.66s-.07 2.13-.34 3.09l-2.16 4.65 8.13-1.93-1.94-2.68s-.58-2.86-.28-3.92c.31-1.05-3.41.79-3.41.79z"/></g><g id="g430"><path id="path432" class="shp17" d="M482.65 357.96c0-.01.64 1.54 1.85 1.51 1.21-.04 1.49-1.4 1.49-1.4l-3.34-.11z"/></g><g id="g434"><path id="path436" class="shp18" d="M481.92 356.7s-.39-1.95-.66-2.54c-.27-.59-.5-3.23 2.52-3.37 0 0 1.17.14 1.8-.25 0 0 0 .39-.16.52 0 0 1.05-.25 1.87.66.82.91-.55 4.1-.48 4.85l-4.89.13"/></g><g id="g438"><path id="path440" class="shp14" d="M484.37 358.87c-.88-.01-2.5-1.18-2.5-2.63v-2.26c0-.53.37-.96.82-.96h3.35c.45 0 .82.43.82.96v2.13c0 1.52-1.49 2.78-2.49 2.76"/></g><g id="g442"><path id="path444" class="shp18" d="M481.87 355.19s0-1.36 1.08-1.57c1.07-.21 3.48.66 3.82-.32.34-1-4.65-.98-4.9-.35-.26.63 0 2.24 0 2.24z"/></g><g id="g446"><path id="path448" class="shp19" d="M485.62 378.7c.54-1.67.53 6.94-1.64 16.63-.32 1.48-1.06 5.04-1.59 8.49h-4.43c-.06-2.79-.36-6.68-.55-9.59-.59-9.13.91-15.98.91-15.98l7.3.45"/></g><g id="g450"><path id="path452" class="shp19" d="M491.3 394.23c-.05 2.8-.61 6.51-.67 9.22h-4.49c-.3-1.97-.78-4-1.13-5.64-.24-1.17-.42-2.13-.42-2.74.01-1.18-.74-4.6-1.19-7.62v-.01c-.02-.12-.03-.23-.05-.35-.6-4.24-.39-8.39-.39-8.39l7.59-.47s.88 8.56.75 16"/></g><g id="g454"><path id="path456" class="shp16" d="M477.72 381.76s1.71 2.07 6.34 1.77c4.63-.3 6.84-1.1 6.84-1.1l-13.18-.67z"/></g><g id="g458"><path id="path460" class="shp20" d="M490.91 382.43c-1.52.2-11.82.74-13.19-.67-1.37-1.4 2.24-20.56 2.24-20.56s.41-.12 1.1-.25c.35-.07.78-.13 1.26-.19 0 .15.12 2.41 2 3.34 0 0 2.25-.9 2.03-3.31l-.01-.08c.3.03.61.07.91.13.62.1 1.24.25 1.86.46 0 0 3.31 20.92 1.8 21.13"/></g><g id="g462"><path id="path464" class="shp20" d="M477.81 372.53c-.07.08.34.67.93 1.43 1.19 1.56 3.09 3.83 3.09 3.83-.02.76-.13 1.26-.13 1.26-2.62-1.24-4.39-2.4-5.56-3.33-1.65-1.3-2.12-2.16-2.12-2.16 2.64-11.19 6.03-12.35 6.03-12.35l1.11 6.74s-3.17 4.34-3.35 4.58z"/></g><g id="g466"><path id="path468" class="shp6" d="M487.25 360.84l-.68 2.07-.91 1.34-1.3.71-1.23-.71-2.07-3.3c.35-.07.78-.13 1.26-.19 0 .07.03.41.25.84.75 1.44 2.85 1.45 3.59.01.13-.25.2-.52.19-.82 0-.02 0-.05-.01-.08.3.03.61.07.91.13"/></g><g id="g470"><path id="path472" class="shp14" d="M481.83 377.79v.06c-.01.14-.01.27-.03.39-.06.09-.13.18-.21.26-.12.12-.25.22-.38.31-.07-.03-.14-.07-.2-.1-2.25-1.11-3.8-2.14-4.87-2.98.67-.21 1.62-.69 2.6-1.77 1.19 1.56 3.09 3.83 3.09 3.83"/></g><g id="g474"><path id="path476" class="shp20" d="M494.83 373.15s-.46.86-2.08 2.2c-1.15.95-2.9 2.15-5.49 3.43 0 0-.12-.49-.16-1.26 0 0 1.86-2.3 3.02-3.88.57-.77.96-1.37.9-1.44-.15-.19-2.13-2.8-3.02-3.97l-.42-.55 1.12-6.63s3.28.97 6.13 12.1"/></g><g id="g478"><path id="path480" class="shp14" d="M492.75 375.35c-1.05.87-2.6 1.94-4.83 3.1-.06.03-.11.05-.17.08-.28-.34-.46-.75-.56-1.12.03-.04.09-.11.15-.18.53-.67 1.87-2.35 2.78-3.59 1 1.06 1.96 1.52 2.63 1.71"/></g><g id="g482"><path id="path484" class="shp14" d="M486.34 360.71c-1.5-.16-2.91-.09-4.02.05v-.01s3.72-2.3 4.02-.04z"/></g><g id="g486"><path id="path488" class="shp7" d="M482.61 367.22h-.08l-.06-3.59h.2l-.06 3.59z"/></g><g id="g490"><path id="path492" class="shp7" d="M482.53 367.13c-.08.1-.23.45-.13.49.11.03.29.03.34-.01.04-.05-.08-.68-.21-.48z"/></g><g id="g494"><path id="path496" class="shp7" d="M486.13 367.22h-.07l-.06-3.59h.19l-.06 3.59"/></g><g id="g498"><path id="path500" class="shp7" d="M486.05 367.13c-.07.1-.23.45-.12.49.1.03.28.03.33-.01.05-.05-.08-.68-.21-.48z"/></g><g id="g502"><path id="path504" class="shp7" d="M483.13 364.25l-3.17-3.05s-.71-.51.41-1.27c1.13-.75 2.76 4.32 2.76 4.32z"/></g><g id="g506"><path id="path508" class="shp7" d="M485.65 364.25l3.17-3.05s.71-.51-.41-1.26c-1.13-.76-2.76 4.31-2.76 4.31"/></g><g id="g510"><path id="path512" class="shp7" d="M489.63 379.1c-.62.05-1.13-.11-1.53-.46-.07-.06-.13-.13-.18-.19-.32-.37-.49-.83-.59-1.22-.11-.44-.12-.79-.12-.8l-.01-.08h-5.11v.09c.02.55-.07 1.02-.26 1.41-.1.19-.23.37-.37.52-.14.14-.3.25-.45.34-.69.4-1.45.39-1.46.39l-.09-.01v2.16h10.27v-2.16l-.1.01"/></g><g id="g514"><path id="path516" class="shp7" d="M491.02 372.2s-2.85-3.74-.59-4.83c.9-.43 2.15 4.7 1.48 5.18-.68.48-1.79 1.09-1.79 1.09l.9-1.44"/></g><g id="g518"><path id="path520" class="shp7" d="M478.13 371.58s.99-4.7.12-4.21c-.86.48-2.15 4.7-1.47 5.18.67.48 1.78 1.09 1.78 1.09l-.43-2.06"/></g><g id="g522"><path id="path524" class="shp15" d="M490.62 372.18c-1.3-1.61-1.78-4.23-1.71-6.94.04-2.03.32-3.87.34-3.93l1.07.83c0 .02-.62 1.13-.66 3.11-.05 1.8-.13 3.18.89 6.33l.07.6"/></g><g id="g526"><path id="path528" class="shp16" d="M480.74 404.82h-2.29c-.2.02-.52-.28-.52-.7 0 0 0-1.02-.07-1.2-.3-.79.14-.83.56-.83h4.19c.42 0-.23 1.31-.23 1.73l.16.56c0 .42-1.37.44-1.8.44"/></g><g id="g530"><path id="path532" class="shp6" d="M481.43 405.89l-.63 2.64h-1.95l-.12-2.53c.29.11 1.28.38 2.7-.11"/></g><g id="g534"><path id="path536" class="shp14" d="M486.67 403.91l.47 1.98.63 2.64h1.95l.12-2.53.09-1.94-3.26-.15"/></g><g id="g538"><path id="path540" class="shp16" d="M487.83 404.82h2.29c.21.02.52-.28.52-.7 0 0 .01-1.02.08-1.2.29-.79-.15-.83-.57-.83h-4.19c-.42 0 .23 1.31.23 1.73l-.15.56c0 .42 1.37.44 1.79.44"/></g><g id="g542"><path id="path544" class="shp6" d="M487.15 405.89l.62 2.64h1.96l.11-2.53c-.29.11-1.27.38-2.69-.11"/></g><g id="g546"><path id="path548" class="shp6" d="M483.53 357.29s.31.42.84.4c.52-.01.77-.4.77-.4s-.89-.14-1.61 0z"/></g><g id="g550"><path id="path552" class="shp21" d="M531.57 380.01s-1.12 12.03 1.37 18.58c.69 1.82 8.32 8.88 9.52 11.25 0 0 1.64-1.42 1.43-1.76-1.1-1.76-2.59-7.19-5.91-10.79-3.32-3.61.68-12.94.68-12.94l-7.09-4.34"/></g><g id="g554"><path id="path556" class="shp14" d="M532.52 376.3c-3.14-.8-6.59-5.67-6.59-5.67l.89-.77c.91 1.08 4.71 2.94 4.71 2.94-.02-.99.01-1.89.07-2.71.42-5.57 2.52-7.42 3.09-7.83l.15-.09v.11c.01.17.03.5.04.96.12 3.41.26 13.72-2.36 13.06"/></g><g id="g558"><path id="path560" class="shp14" d="M526.82 369.86c-.02-.13.05-1.85-.52-2.2-.45-.28-1.1-1.07-1.31-1.03-.22.04-.81 1.31-.46 2.15.34.83 1.4 1.85 1.4 1.85l.89-.77"/></g><g id="g562"><path id="path564" class="shp14" d="M534.58 414.64l1.6-.19s4.17-8.59 3.6-13.92c-.12-1.23-.02-2.47.34-3.64.4-1.28.91-2.97 1.35-4.62.26-1.01.52-2.07.75-3.14.31-1.43.57-2.87.73-4.24.27-2.26.25-4.29-.28-5.61l-7.21-.72s-.62 5.77-.79 11.51l-.03 1.07c-.06 3.14.41 5.74.72 8.02.1.71.12 1.42.08 2.14l-.86 13.34"/></g><g id="g566"><path id="path568" class="shp16" d="M537.31 355.98s1.68 1.43.13 3.09c0 0 1.29.12 1.73-.23 0 0-.08.17-.16.25 0 0 1.44.05 2.03-.4.6-.45.21-7.82-3.79-7 0 0-3.38-.25-3.07 3.67.32 3.92-.96 3.92-.96 3.92s.35.18.52.18c0 0 .25-.1.31-.24 0 0-.06.22-.12.29 0 0 1.38.13 2.07-.39s1.5-2.33 1.31-3.14"/></g><g id="g570"><path id="path572" class="shp14" d="M532.23 364.58h9.24c-.66-1.66-1.6-2.86-2.32-3.01-.39-.1-1.04-1.48-1.03-3.71l-.18.03-2.9.58s.07.91.07 1.77c0 .72-.04 1.45-.2 1.53-.21.02-.4.06-.4.06s-1.57 1.1-2.28 2.75z"/></g><g id="g574"><path id="path576" class="shp21" d="M535.04 358.47s.07.91.07 1.77c1.63-.05 2.48-1.53 2.84-2.35l-2.91.58"/></g><g id="g578"><path id="path580" class="shp16" d="M538.25 357.57s.85-1.34 1.05-2.49c.15-.82-.27-3.87-3.33-3.43 0 0-.89.09-1.72.65-.67.45-1.63 1.42-.56 4.07l.28.9 4.28.3"/></g><g id="g582"><path id="path584" class="shp14" d="M534.5 359.28s3.84.06 3.84-2.33c.01-2.39.5-4-1.95-4.14-2.45-.14-2.93.77-3.13 1.57-.19.8.24 4.82 1.24 4.9"/></g><g id="g586"><path id="path588" class="shp16" d="M534.64 352.75s1.05 2.81 2.67 3.23c1.62.41 2.32-.02 2.32-.02s-1.24-.99-1.5-2.7c0 0-2.69-1.85-3.49-.51z"/></g><g id="g590"><path id="path592" class="shp16" d="M534.9 352.98s-.78.63-.98 1.24c-.19.61-.27 1.86-.64 1.82 0 0-.79-1.91.1-2.99.94-1.15 1.52-.07 1.52-.07"/></g><g id="g594"><path id="path596" class="shp14" d="M547.75 382.87l-1.15.35s-3.81-6.32-4.15-7.96c-.12-.54-.4-1.61-.72-2.81-.67-2.48-1.53-5.52-1.53-5.52l-.28-1.23-.97-4.2s1.85.19 2.94.65c.36.15.63.33.73.54.79 1.75 1.59 6.17 2.15 9.33.31 1.76.55 3.12.67 3.41.35.81 1.41 5.25 2.31 7.44z"/></g><g id="g598"><path id="path600" class="shp16" d="M534.76 353.07s.74 2.95 2.78 3.89c0 0-2.04-1.81-2.21-3.75-.17-1.94-.57-.14-.57-.14z"/></g><g id="g602"><path id="path604" class="shp6" d="M535 369.61c-.16 3.97-.75 7.91-2.49 7.65-2.11-.31-2.67-2.28-2.78-3.75-.07-.92.03-1.64.03-1.64s1.05 0 1.22-.16c.79-.74.56-8 .95-8.75.4-.75 2.97-1.24 2.97-1.24s.26 3.97.1 7.89"/></g><g id="g606"><path id="path608" class="shp19" d="M544.81 388.1s-1.51.52-3.74.87c-2.76.43-6.62.59-10.07-.87 0 0-.28-5.8.54-8.82.81-3.02 1.19-4.46 1.19-4.46s3.27.92 6.6.21c.46-.1.93-.24 1.39-.41 0 0 2.05 4.91 2.61 7.02.56 2.11 1.48 6.46 1.48 6.46"/></g><g id="g610"><path id="path612" class="shp6" d="M548.17 377c0 1-1.02 1.61-2.11 1.91-1.04.29-2.16.28-2.52.05-.6-.41-1.58-4.9-1.87-6.27l-.08-.4s-.79 1.88-.81 2.05c-.01.08-.02.19-.03.28-.01.11-.01.21-.01.21s-4.26 2.15-7.99.18c0 0-1.51-8.76-.85-10.27.32-.74 2.03-2.29 2.71-2.96.16-.15.14-.44.08-.72-.05-.22.15-.43.38-.37.44.12 1.23.1 2.08-.18.42-.14.85-.34 1.26-.62.12-.08.29-.01.3.14.07.52.23 1.47.52 1.47.39 0 3.1.33 3.3.67.06.11.77 1.71 1.66 3.82 1.67 3.96 3.98 9.73 3.98 11.01"/></g><g id="g614"><path id="path616" d="M541.59 372.29s-.79 1.88-.81 2.05c-.01.08-.02.19-.03.28-.38.31-.84.55-1.31.69-1.32.4-1.9-2.14-1.82-3.41.08-1.27 1.96-4.89 2.58-4.97.63-.07 1.39 5.36 1.39 5.36" fill="#ecf3fe"/></g><g id="g618"><path id="path620" class="shp23" d="M541.67 372.69l-.08-.4c.04.14.07.27.08.4z"/></g><g id="g622"><path id="path624" d="M550.62 387.79c-.09-.41-.37-.73-.75-.88-.63-.23-1.65-.43-2.9-.06-2.12.62-2.32 1.92-2.18 2.85.14.94-.28 2.43-.22 3.49.06 1.06.36 3.73 1.94 3.59 1.56-.14 6.61-1.5 6.61-1.5s.88-1.66-.91-4.07c-1.07-1.42-1.46-2.72-1.59-3.42" fill="#d36c26"/></g><g id="g626"><path id="path628" class="shp25" d="M549.64 386.56l-.42.04s-.04-.29-.24-.47c-.15-.14-.35-.19-.61-.15-.24.04-.41.15-.5.33-.12.25-.05.57-.05.57l-.41.1c-.01-.02-.13-.55.09-.99.15-.31.41-.48.77-.55.38-.06.69.03.95.27.34.34.42.83.42.85"/></g><g id="g630"><path id="path632" class="shp20" d="M554.16 395.05s-5.05 1.35-6.62 1.49c-1.57.15-1.87-2.52-1.93-3.58-.06-1.06.35-2.55.21-3.49-.03-.18-.04-.38-.03-.58.04-.83.51-1.78 2.21-2.28 1.26-.37 2.28-.16 2.9.07.39.14.67.47.75.87.02.08.04.18.06.28.18.74.59 1.9 1.53 3.15 1.79 2.4.92 4.07.92 4.07z"/></g><g id="g634"><path id="path636" class="shp26" d="M548.03 395.16c-.97 0-1.43-.78-1.66-1.98l3.05-.69s.7 2.18-.73 2.58c-.24.06-.46.09-.66.09"/></g><g id="g638"><path id="path640" class="shp25" d="M546.37 393.18s.7.68 1.65.44c.95-.24 1.4-1.13 1.4-1.13l-3.05.69"/></g><g id="g642"><path id="path644" class="shp26" d="M551.7 394.34c-.98 0-1.43-.79-1.66-1.99l3.04-.69s.71 2.18-.73 2.58c-.24.06-.46.1-.65.1z"/></g><g id="g646"><path id="path648" class="shp25" d="M550.03 392.35s.71.68 1.65.44c.95-.24 1.4-1.13 1.4-1.13l-3.05.69z"/></g><g id="g650"><path id="path652" class="shp7" d="M551.65 387.55c.02.08.04.18.06.28-.4.83-1.17 1.89-2.46 2.14-2.2.43-3.46-1.08-3.46-1.08.04-.83.51-1.78 2.21-2.28 1.26-.37 2.28-.16 2.9.07.38.15.67.47.75.87"/></g><g id="g654"><path id="path656" d="M549.28 390.43a.253.253 0 01-.3-.19l-.05-.23c-.04-.14.05-.28.19-.31.14-.03.28.06.31.2l.05.22c.03.14-.06.28-.2.31" fill="#d86713"/></g><g id="g658"><path id="path660" class="shp14" d="M547.67 382.68s.35.82.72 1.05c.36.24.71.79.79 1.24.13.81-.49 1.32-.95 1.32-.46 0-.91-.63-1.18-2.13-.01-.08-.45-.95-.45-.95l1.07-.53"/></g><g id="g662"><path id="path664" d="M536.23 375.97c-2.42 0-3.42-.83-3.5-.89l-.16-1.14c.03.02 3.28 1.97 8.31.1l-.11.86c-1.93.72-3.28 1.07-4.54 1.07z" fill="#b64c41"/></g><g id="g666"><path id="path668" class="shp14" d="M536.19 414.69s-.18.6.01 1.05l-2.3 1.41-2.71.7-.8-.41s4.04-2.05 4.24-5.18c.16-2.43 1.56 2.43 1.56 2.43"/></g><g id="g670"><path id="path672" class="shp29" d="M534.2 417.82c-1.31.17-.89.41-2.66.88-1.77.47-2.54.04-2.69-.19-.13-.21.68-.62 1.54-1.07l.02.01s1.3.33 2.73-.19c1.16-.42 2.26-1.22 3.06-1.52.12.26.24.52.29.81.14.81-.98 1.1-2.29 1.27"/></g><g id="g674"><path id="path676" class="shp21" d="M546.1 408.97c.67.36.26 1.34-.35 2.4-.61 1.06-.2.89-.85 2.46-.65 1.57-1.4 1.89-1.66 1.87-.22-.02-.07-.84.08-1.73l.06-.34c.16-1.01-.26-1.9-.52-2.93-.25-.98-1.87-2.8-1.87-2.8l.82-2.18s1.43 1.68 2.07 2.36c.38.4.99.56 1.46.66.26.05.52.11.76.23"/></g><g id="g678"><path id="path680" class="shp29" d="M545.75 411.37c-.61 1.06-.2.89-.85 2.46-.65 1.57-1.4 1.89-1.66 1.87-.22-.02-.07-.84.08-1.73l.02-.01s.97-.77 1.4-2.11c.35-1.1.37-2.36.6-3.11.26.05.52.11.76.23.67.36.26 1.34-.35 2.4z"/></g><g id="g682"><path id="path684" class="shp16" d="M524.24 365.83l.05 1.13.08 1.49.06 1.23h2.05l.07-1.23.08-1.49.06-1.13h-2.45"/></g><g id="g686"><path id="path688" class="shp6" d="M524.1 366.01h2.72l-.08-.41h-2.59l-.05.41z"/></g><g id="g690"><path id="path692" class="shp6" d="M525.19 365.6l-.64-.15-.08.15h.72"/></g><g id="g694"><path id="path696" class="shp6" d="M524.29 366.96l.08 1.49h2.18l.08-1.49h-2.34z"/></g><g id="g698"><path id="path700" class="shp14" d="M524.29 366.96s.56-.42.65.15c.04.28-.58 1.19-.58 1.19-.21-.19-.37-1.2-.07-1.34"/></g><path id="path702" class="shp30" d="M70.69 218.43s5.94-7.74 20.17-6.88c0 0 20.65-12.9 42.68-1.72 0 0 23.41-2.77 40.74 2.39 11.56 3.45 15.38 7.07 15.38 7.07l-118.97-.86"/><g id="g704"><path id="path706" class="shp30" d="M523.52 51.64s4.98-7.74 16.9-6.88c0 0 17.31-12.9 35.77-1.72 0 0 19.61-2.77 34.14 2.4 9.69 3.45 12.89 7.06 12.89 7.06l-99.7-.86z"/></g><path id="path708" class="shp30" d="M213.86 152.6s6.59-7.74 22.36-6.88c0 0 22.9-12.9 47.31-1.72 0 0 25.95-2.77 45.17 2.4 12.81 3.45 17.04 7.06 17.04 7.06l-131.88-.86"/><g id="g710"><path id="path712" class="shp30" d="M807.01 89.25l-184.8-1.21s10.27-12.05 34.83-10.72c0 0 35.65-20.09 73.68-2.67 0 0 40.41-4.32 70.35 3.73.03.01.07.02.09.03 2.13 3.5 4.08 7.11 5.85 10.84z"/></g><path id="path714" class="shp30" d="M199.78 125.03a4.955 4.955 0 119.91.01 4.955 4.955 0 01-9.91-.01"/><g id="g716"><g id="Clip-Path: g718" clip-path="url(#cp1)"><g id="g718"><path id="path724" d="M150.75 239.74h77.82v-9.17h-77.82v9.17z" fill="#eaf3ff"/></g></g></g><g id="g726"><path id="path728" class="shp32" d="M899.92 424.29l-225.31.05s-2.01-19.05 14.56-22.99c16.59-3.93 7.75-15.33 20.28-21.35 12.52-6.01 30.59-3.48 35.01 10.75 4.41 14.23 18.06 1.26 34.63 0 16.6-1.27 21.18 7.67 24.04 12.46 2.87 4.79 25.71 7.66 36.4-5.31 10.69-12.95 18.43-15.81 30.22-15.89 3.15-.02 5.73-1.31 8.14-3.19 2.07 2.51 4.06 5.08 5.97 7.72 7.66 10.83 13.52 23.58 16.06 37.75"/></g><g id="g730"><path id="path732" class="shp3" d="M634.21 453.93c0 9.08-66.59 16.44-148.73 16.44-82.15 0-148.74-7.36-148.74-16.44 0-9.08 66.59-16.44 148.74-16.44 82.14 0 148.73 7.36 148.73 16.44z"/></g><g id="g734"><path id="path736" class="shp3" d="M655.39 457.15c0 12.06-80.14 21.83-178.99 21.83-98.86 0-179-9.77-179-21.83 0-12.06 80.14-21.83 179-21.83 98.85 0 178.99 9.77 178.99 21.83z"/></g><g id="g738"><path id="path740" class="shp3" d="M901.07 445.87c-.36 6.36-1.3 13.09-2.92 20.22-.15.65-.31 1.31-.47 1.97H577.39l42.54-22.19h281.14"/></g><path id="path742" class="shp3" d="M403.12 444.89v18.82H22.27c-1.55-5.19-3.14-10.75-4.73-16.63l385.58-2.19z"/><g id="g744"><path id="path746" class="shp32" d="M642.22 445.87c-5.11 0-7.76-6.17-4.19-9.83 2.43-2.48 5.55-4.71 9.42-5.67 10.91-2.67 13.59 5.55 20.1 4.79 6.5-.77 16.92-5.09 27.11 2.33 10.2 7.42 28.11-4.89 40.36-3.61 4.12.43 6.8 1.93 8.54 3.73 2.98 3.09.71 8.26-3.58 8.26h-97.76"/></g><g id="g748"><path id="path750" class="shp33" d="M763.58 424.09h72.6l3.36-17.06h-72.47l-3.49 17.06z"/></g><g id="g752"><path id="path754" class="shp8" d="M762.34 424.09h72.6l3.36-17.06h-72.48l-3.48 17.06z"/></g><g id="g756"><path id="path758" class="shp33" d="M814.75 426.18h19.84c.88 0 1.59-.71 1.59-1.59v-.5h-21.43v2.09z"/></g><g id="g760"><path id="path762" class="shp34" d="M748.97 426.18h65.94v-2.09h-65.94v2.09z"/></g><g id="g764"><path id="path766" class="shp34" d="M831.85 426.18l1.24 4.88v.01l3.68 14.48c.05.19.22.32.41.32.38 0 .66-.34.59-.71l-3.29-16.88-.4-2.1h-2.23"/></g><g id="g768"><path id="path770" class="shp33" d="M833.09 431.06c-.12-2.5 1.39-2.78 1.39-2.78l-.4-2.1h-2.23l1.24 4.88"/></g><g id="g772"><path id="path774" class="shp34" d="M816.1 426.18l1.24 4.88v.01l3.68 14.48c.05.19.22.32.41.32.38 0 .66-.34.59-.71l-3.29-16.88-.41-2.1h-2.22"/></g><g id="g776"><path id="path778" class="shp33" d="M817.34 431.06c-.12-2.5 1.39-2.78 1.39-2.78l-.41-2.1h-2.22l1.24 4.88z"/></g><g id="g780"><path id="path782" class="shp34" d="M754.99 426.18l-1.24 4.88v.01l-3.69 14.48c-.05.19-.22.32-.41.32a.59.59 0 01-.58-.71l3.28-16.88.41-2.1h2.23z"/></g><g id="g784"><path id="path786" class="shp33" d="M753.75 431.06c.11-2.5-1.4-2.78-1.4-2.78l.41-2.1h2.23l-1.24 4.88z"/></g><g id="g788"><path id="path790" class="shp34" d="M770.74 426.18l-1.25 4.88v.01l-3.68 14.48c-.05.19-.22.32-.41.32-.37 0-.65-.34-.58-.71l3.28-16.88.41-2.1h2.23z"/></g><g id="g792"><path id="path794" class="shp33" d="M769.49 431.06c.12-2.5-1.39-2.78-1.39-2.78l.41-2.1h2.23l-1.25 4.88z"/></g><path id="path796" class="shp33" d="M207.63 421.68h62.49l2.89-14.69h-62.37l-3.01 14.69z"/><path id="path798" class="shp8" d="M206.57 421.68h62.49l2.89-14.69h-62.38l-3 14.69z"/><path id="path800" class="shp33" d="M251.68 423.47h17.08c.76 0 1.37-.61 1.37-1.37v-.42h-18.45v1.79z"/><path id="path802" class="shp34" d="M195.06 423.47h56.76v-1.79h-56.76v1.79z"/><path id="path804" class="shp34" d="M266.4 423.47l1.07 4.21v.01l3.16 12.46c.04.16.19.27.36.27.32 0 .56-.29.5-.6l-2.83-14.54-.35-1.81h-1.91z"/><path id="path806" class="shp33" d="M267.47 427.68c-.11-2.15 1.19-2.4 1.19-2.4l-.35-1.81h-1.91l1.07 4.21z"/><path id="path808" class="shp34" d="M252.84 423.47l1.07 4.21v.01l3.17 12.46c.04.16.19.27.35.27.32 0 .57-.29.5-.6l-2.82-14.54-.35-1.81h-1.92z"/><path id="path810" class="shp33" d="M253.91 427.68c-.1-2.15 1.2-2.4 1.2-2.4l-.35-1.81h-1.92l1.07 4.21z"/><path id="path812" class="shp34" d="M200.24 423.47l-1.07 4.21v.01L196 440.15c-.04.16-.18.27-.35.27-.32 0-.56-.29-.5-.6l2.82-14.54.36-1.81h1.91"/><path id="path814" class="shp33" d="M199.17 427.68c.11-2.15-1.2-2.4-1.2-2.4l.36-1.81h1.91l-1.07 4.21z"/><path id="path816" class="shp34" d="M213.8 423.47l-1.07 4.21v.01l-3.17 12.46c-.04.16-.19.27-.35.27-.32 0-.57-.29-.51-.6l2.83-14.54.35-1.81h1.92z"/><path id="path818" class="shp33" d="M212.73 427.68c.1-2.15-1.2-2.4-1.2-2.4l.35-1.81h1.92l-1.07 4.21z"/><path id="path820" class="shp16" d="M159.1 355.53c.87-1.32 4.31-.58 7.69 1.65 3.37 2.22 5.41 5.09 4.54 6.4-.87 1.32-4.31.58-7.68-1.64-3.38-2.23-5.41-5.1-4.55-6.41"/><path id="path822" class="shp15" d="M176.74 404.39l-.67.04c.01-.01-.26-11.63-1.27-16.34-1.9-8.76-6.87-15.62-6.92-15.68l1.19-.38c.06.06 1 1.52 2.33 4.21 1.23 2.48 3.21 6.61 4.08 11.43.86 4.74 1.28 16.66 1.26 16.72z"/><path id="path824" class="shp35" d="M164.7 355.43s4.35-.93 6.44 2.61c2.09 3.54 2.21 9.7 3.6 11.71 1.4 2.02 3.86 10.52 1.24 12.42-2.61 1.9-18.71-.07-19.62-.94-.9-.87.06-9.79 1.63-12.38 1.57-2.58-2.26-14.74 6.71-13.42"/><path id="path826" class="shp14" d="M158.21 394.21c-4.93-1.26-10.35-8.9-10.35-8.9l1.39-1.21c1.43 1.7 7.41 4.62 7.41 4.62-.03-1.56.01-2.97.1-4.26.67-8.74 3.96-11.66 4.86-12.3.15-.1.23-.15.23-.15s.01.07.01.19c.01.26.04.78.06 1.5.19 5.35.4 21.55-3.71 20.51"/><path id="path828" class="shp14" d="M149.25 384.1c-.02-.2-.16-3.21-.76-3.78-.6-.57-1.78-1.35-2.11-1.29-.34.06-1.49 1.98-.95 3.3.54 1.31 2.43 2.98 2.43 2.98l1.39-1.21"/><path id="path830" class="shp14" d="M168.94 445.06c-.3 1.19-.63 2.33-.97 3.39-.07.23-.14.45-.21.67-.04.11-.08.21-.11.32-.07.21-.14.41-.21.61-.09.27-.18.52-.27.77-.07.18-.14.36-.2.54-1 2.68-1.84 4.38-1.84 4.38l-1.99-.14s.75-3.56.9-8.65c0-.18.01-.37.01-.55.01-.4.01-.8.01-1.21v-.51c-.04-4.39-.58-9.58-2.31-14.53a94.817 94.817 0 01-3.18-11.19c-2.38-10.99-1.82-18.21-1.82-18.21l11.2 1.31.53.06c.04 5.15.18 12.14.29 17.6a2828.737 2828.737 0 00.2 8.59c2.15 4.64 1.37 11.19-.03 16.75"/><path id="path832" class="shp14" d="M174.29 399.5c-2.12-4.75-3.14-6.09-3.17-7.59-.03-1.18.55-2.46 1.69-5.58.26-.74.45-1.5.56-2.26.89-6.03-2.59-12.54-4.76-12.99-.6-.16-1.62-2.33-1.61-5.84l-.27.05-4.56.91s.1 1.43.11 2.78c0 1.13-.06 2.28-.32 2.41-.33.03-3.91.67-4.56 1.7-.64 1.01.08 1.1-.17 4.78-.34 4.91 3.13 10.73.06 20.55-3.14 10.02 18.17 3.7 17 1.08"/><path id="path834" d="M162.17 366.2s.1 1.43.11 2.78c2.55-.07 3.9-2.4 4.45-3.69l-4.56.91" fill="#ef9e67"/><path id="path836" class="shp14" d="M161.32 367.48s6.04.1 6.04-3.66c0-3.77.79-6.29-3.07-6.51-3.85-.22-4.6 1.21-4.91 2.47-.31 1.25.37 7.58 1.94 7.7"/><path id="path838" class="shp35" d="M161.54 357.22s1.65 4.41 4.19 5.06c2.54.66 3.64-.02 3.64-.02s-1.95-1.55-2.35-4.25c0 0-4.23-2.89-5.48-.79"/><path id="path840" class="shp35" d="M161.95 357.58s-1.23.98-1.54 1.94c-.3.96-.43 2.93-1.01 2.86 0 0-1.24-3 .16-4.69 1.48-1.8 2.39-.11 2.39-.11z"/><path id="path842" class="shp14" d="M182.14 404.54l-1.81.54s-5.98-9.92-6.53-12.5c-.18-.84-.61-2.52-1.12-4.41-1.05-3.9-2.4-8.68-2.4-8.68l-.45-1.93-1.52-6.59s2.91.3 4.62 1.01c.56.24.99.52 1.14.85 1.26 2.75 2.51 9.7 3.39 14.66.49 2.76.86 4.91 1.05 5.36.55 1.27 2.21 8.24 3.63 11.69"/><path id="path844" class="shp35" d="M161.72 357.73s1.18 4.62 4.38 6.1c0 0-3.2-2.84-3.47-5.89s-.91-.21-.91-.21z"/><path id="path846" class="shp14" d="M175.37 444.1c-.65 6.87-3.48 11.32-3.48 11.32l-.97.88s-.89-5.03-1.52-10.8c-.61-5.48-1.44-11.27-2.38-13.04-1.41-2.64-2.45-8.05-3.19-13.76-1.24-9.45-1.67-19.74-1.67-19.74l11.36-.57c1.14 1.92 1.64 5.07 1.75 8.66.13 3.76-.17 8.01-.58 11.8-.57 5.31-1.37 9.73-1.56 10.73-.03.13.01.26.07.38 2.26 4.47 2.59 9.6 2.17 14.14"/><path id="path848" class="shp37" d="M153.83 389.83c.18 2.31 1.04 5.42 4.37 5.9 1.18.17 2.02-.89 2.62-2.66.78-2.31 1.15-5.83 1.29-9.36.14-3.35.08-6.72 0-9.09-1.37-.16-3.87-1.32-4.64-1.6l-.07.07-.04.06c-.03.03-.05.07-.07.11-.33.63-.38 4.17-.55 7.51-.14 2.92-.37 5.69-.96 6.24-.26.24-1.9.25-1.9.25s-.16 1.13-.05 2.57"/><path id="path850" class="shp38" d="M162.11 383.71c-.26 6.24-1.19 12.42-3.91 12.02-3.33-.48-4.19-3.59-4.37-5.9.82-.05 2.26-.24 2.83-1.12.82-1.24 3.37-9.28 3.37-9.28s1.01 1.8 2.08 4.28"/><path id="path852" class="shp19" d="M158.57 392.19s6.69 1.67 12.55-.28c0 0 3.22 6.83 4.1 9.76.89 2.93 7.58 40.41 7.58 40.41s-14.72 4.26-24.51.58c0 0-2.88-40.07-1.6-44.27 1.29-4.19 1.88-6.2 1.88-6.2"/><path id="path854" class="shp37" d="M156.74 380.74c.49 4.83 1.83 11.39 1.83 11.39.74.39 1.5.68 2.25.88 5.19 1.41 10.3-1.16 10.3-1.16l.02-.33c.01-.15.02-.31.04-.44.04-.27 1.27-3.21 1.27-3.21s.05.23.13.62c.45 2.15 2 9.19 2.95 9.82.54.37 2.3.38 3.95-.07 1.72-.47 3.32-1.43 3.32-2.99 0-2-3.64-11.05-6.26-17.25v-.01c-1.4-3.3-2.21-5.6-3.28-5.85 0 0-7.17 2.92-11.15 2.47-1.37-.16-3.87-1.31-4.64-1.6l-.07.08-.04.06-.04.06c-.59.86-.49 2.28-.52 2.82-.06 1.06-.27 2.55-.06 4.71"/><path id="path856" class="shp38" d="M172.45 387.92s-1.23 2.94-1.27 3.22c-.02.12-.03.29-.04.44-.6.48-1.32.85-2.05 1.08-2.09.63-2.99-3.37-2.87-5.36.13-1.99 3.08-7.69 4.06-7.81.98-.11 2.17 8.43 2.17 8.43"/><path id="path858" class="shp23" d="M172.58 388.54c-.08-.39-.13-.62-.13-.62.07.21.11.42.13.62z"/><path id="path860" class="shp39" d="M163.97 393.46c-3.8 0-5.31-1.07-5.43-1.16l-.25-1.79c.04.03 5.15 3.1 13.05.16l-.17 1.35c-3.04 1.14-5.22 1.44-7.2 1.44"/><path id="path862" class="shp38" d="M182.8 395.32c0 1.56-1.6 2.53-3.32 3 2.37-2.82-2.81-19.86-2.94-20.3 2.62 6.22 6.26 15.29 6.26 17.3z"/><path id="path864" class="shp16" d="M166.28 457.41h-1.27c-.43-.07-.74-.19-1.18-.25-.66-.09-.97.18-1.03.25l-.01.01h-5.4c-.14-.19-.01-.64.12-.97.09-.23.28-.4.51-.47.57-.16 1.7-.31 2.73-1.24.58-.53 2.81-1.94 2.81-1.94h.01c.05 0 .29.07 1.3.93.52.44 1.41-.63 1.41-.63a1.322 1.322 0 00.41 1.23c-.08.49.18 1.39.39 2 .13.37.23.64.23.64s.06.3-1.03.44"/><path id="path866" class="shp40" d="M166.58 453.5c-.31.21-.95.64-1.37.69-.58.08-1.65-1.39-1.65-1.39h.01c.05 0 .29.07 1.3.93.52.44 1.41-.63 1.41-.63s.17.14.3.4z"/><path id="path868" class="shp40" d="M166.28 457.41h-1.27c-.43-.07-.74-.19-1.18-.25-.66-.09-.97.18-1.03.25l-.01.01h-5.4c-.14-.19-.01-.64.12-.97.17-.15.21.63.3.75.09.13 4.41.05 4.66-.13.25-.19.99-.5 2.04-.25.9.21 2.24-.34 2.57-.49.13.37.23.64.23.64s.06.3-1.03.44"/><path id="path870" class="shp16" d="M173.06 457.41h-1.27c-.42-.07-.74-.19-1.18-.25-.66-.09-.96.18-1.02.25l-.02.01h-5.4c-.13-.19 0-.64.13-.97.08-.23.27-.4.5-.47.57-.16 1.7-.31 2.74-1.24.58-.53 2.81-1.94 2.81-1.94h.01c.05 0 .28.07 1.29.93.53.44 1.42-.63 1.42-.63s.17.14.29.4c.1.2.18.49.12.83-.08.49.18 1.39.38 2 .13.37.24.64.24.64s.06.3-1.04.44"/><path id="path872" class="shp40" d="M173.36 453.5c-.3.21-.94.64-1.37.69-.57.08-1.64-1.39-1.64-1.39h.01c.05 0 .28.07 1.29.93.53.44 1.42-.63 1.42-.63s.17.14.29.4"/><path id="path874" class="shp40" d="M173.06 457.41h-1.27c-.42-.07-.74-.19-1.18-.25-.66-.09-.96.18-1.02.25l-.02.01h-5.4c-.13-.19 0-.64.13-.97.16-.15.21.63.3.75.09.13 4.4.05 4.65-.13.25-.19 1-.5 2.04-.25.91.21 2.24-.34 2.57-.49.13.37.24.64.24.64s.06.3-1.04.44"/><path id="path876" class="shp14" d="M182.01 404.24s.55 1.29 1.13 1.66c.57.36 1.11 1.23 1.23 1.93.22 1.29-.76 2.09-1.49 2.09-.72 0-1.42-.99-1.84-3.35-.03-.13-.71-1.49-.71-1.49l1.68-.84z"/><path id="path878" class="shp41" d="M146.5 377.4l.09.87.27 2.75.17 1.75h3.5l.22-1.75.33-2.75.11-.87h-4.69"/><path id="path880" class="shp42" d="M146.26 377.4h5.21l-.11-.52h-4.98l-.12.52"/><path id="path882" class="shp42" d="M146.59 378.27l.27 2.75h3.89l.33-2.75h-4.49z"/><path id="path884" class="shp14" d="M146.13 379.26s.88-.99 1.77-.23c.88.75-.06 2.36-.83 2.8-.77.45-1.01.68-1.01.68l.07-3.25z"/><path id="path886" class="shp15" d="M166.21 404.45l.67-.05c-.01-.02-1.31-11.65-.93-16.48.71-8.99 4.71-16.51 4.76-16.57l-1.23-.22c-.05.07-.79 1.65-1.75 4.51-.89 2.64-2.29 7.03-2.51 11.95-.22 4.85.96 16.8.99 16.86z"/><path id="path888" d="M174.28 401.89s-.65-1.59-1.68-1.99l-5.25.99s1.3 1.23 1.42 2.04l5.51-1.04z" fill="#d2e4ff"/><path id="path890" d="M167.69 410.87l8.97-1.69c.42-.08.7-.48.62-.9l-1.12-5.95a.789.789 0 00-.91-.63l-8.97 1.7c-.43.08-.7.48-.62.9l1.12 5.95c.08.42.48.7.91.62z" fill="#912f2f"/><path id="path892" class="shp23" d="M170.96 404.12l4.3-.03-.05-5.5-4.29.03.04 5.5"/><path id="path894" class="shp41" d="M171.21 404.12l4.29-.03-.05-5.51-4.29.04.05 5.5z"/><path id="path896" d="M171.9 406.28l3.4-2.61-3.34-4.37-3.41 2.61 3.35 4.37z" fill="#578e9b"/><path id="path898" d="M172.28 405.98l3.4-2.6-3.34-4.37-3.41 2.61 3.35 4.36" fill="#74acbe"/><path id="path900" class="shp15" d="M169.88 410.46l8.59-1.62c.53-.1.88-.61.78-1.13l-1.05-5.57a.977.977 0 00-1.14-.78l-8.59 1.62c-.53.1-.87.61-.78 1.14l1.05 5.56c.1.53.61.88 1.14.78z"/><path id="path902" class="shp16" d="M171.91 360.32s2.75-5.47-1.09-7.63c-3.84-2.17-6.65-1.32-8.76 1.33l9.85 6.3"/><path id="path904" class="shp19" d="M158.95 358.72c.18-.61.4-1.07.59-1.4-.2-.5-.22-.94-.02-1.27.25-.41.84-.57 1.64-.52 1.36.09 3.35.82 5.35 2.06 2.6 1.63 4.02 3.73 4.58 4.89.4.82 1.81 1.81 2.29 2.86.5-.13.82-.36 1.04-.71.72-1.14-.36-3.21-2.57-5.37-1.18-1.16-2.69-2.34-4.43-3.43-1.39-.86-2.78-1.58-4.08-2.11-3.34-1.37-6.11-1.57-6.9-.3-.7 1.13.34 3.17 2.51 5.3z"/><path id="path906" class="shp39" d="M108.71 375.01c-.39-.75 8.5-3.46 8.64 3.97 0 0 16.67-.42 8.71-9.71-2.75-3.21-2.47-5.87-2.39-8.35.09-2.47-1.71-9.66-7.88-8.94 0 0-1.62-.66-3.63.39-4.59 2.38-14.86 25.38-3.45 22.64z"/><path id="path908" class="shp14" d="M135.95 383.31s1.09-1.65 1.96-1.68c.88-.04 2.5-.49 2.37-.17-.13.33-1.14.36-1.23.56-.1.19 1.49.48 1.94.51.45.04 1.52 0 1.49.23-.03.22-1.93 1.17-3.26 1.04-1.34-.13-2.99.38-2.99.38l-.28-.87z"/><path id="path910" class="shp3" d="M120.26 383.84s.59 1.17 1.66 2.51c1.29 1.62 3.28 3.48 5.78 3.85 1.19.18 2.35-.08 3.43-.55v-.01c3.03-1.34 5.31-4.44 5.31-4.44.53-1.45-.34-2.44-.34-2.44s-6.12 1.37-6.7 1.08c-.59-.29-3.99-10.08-4.8-11.31-.81-1.23-3.57-1.87-3.57-1.87l-.77 13.18"/><path id="path912" class="shp2" d="M121.92 386.35c1.29 1.62 3.28 3.48 5.78 3.85 1.19.18 2.35-.08 3.43-.55-.12.01-3.15.38-4.36-1.78-1.23-2.2-2.56-5.69-4.39-4.53-.79.5-.75 1.76-.46 3.01"/><path id="path914" class="shp16" d="M97.43 449.91s-1.87 1.7-1.5 2.91c.36 1.22 2.05 2.02 2.27 3.5.23 1.48 1.14 2.29 1.96 2.29h3.91s.6-1.04-.85-1.36c-1.46-.31-2.01-2.05-1.92-3.66.09-1.62-.14-3.77-.14-3.77l-3.09-.72-.64.81"/><path id="path916" class="shp16" d="M113.24 450.63s-.68 7.22.14 7.63l10.5-.03s0-1.21-1.69-1.48c-1.68-.27-4.64-1.25-5.15-3.45-.5-2.2-3.8-2.67-3.8-2.67"/><path id="path918" class="shp14" d="M105.76 398.84c2.16-4.85 3.48-6.24 3.23-7.74-.19-1.12.57-20.86.57-20.86.25-.08.77-.15 1.05-.21.89-.2 1.62-.82 1.92-1.67.37-1.03.66-2.55.66-4.46l.27.06 4.65.92s-.1 1.46-.11 2.84v.04c0 1.19.78 2.25 1.94 2.58l1.09.32s1.71 4.87 2.04 9.88c.32 5.01-3.11 7.18.02 17.19 3.2 10.23-18.52 3.78-17.33 1.11"/><path id="path920" class="shp21" d="M118.11 364.88s-.1 1.46-.11 2.84c-2.6-.07-3.97-2.45-4.54-3.76l4.65.92z"/><path id="path922" class="shp14" d="M118.98 366.18s-6.15.11-6.16-3.73c0-3.83-.8-6.41 3.13-6.63 3.93-.23 4.7 1.23 5.01 2.51.31 1.28-.38 7.73-1.98 7.85z"/><path id="path924" class="shp39" d="M118.75 355.73s-1.68 4.49-4.27 5.16c-2.59.67-3.71-.03-3.71-.03s1.99-1.58 2.4-4.33c0 0 4.31-2.95 5.58-.8"/><path id="path926" class="shp39" d="M118.34 356.09s1.25.47 1.76 1.38c.5.89.93 2.07.83 3.52 0 0 1.27-3.06-.15-4.79-1.52-1.83-2.44-.11-2.44-.11"/><path id="path928" class="shp47" d="M117.64 363.81s.43.56 1.28.51c.68-.03.95-.62.95-.62s-1.26-.3-2.23.11z"/><path id="path930" class="shp3" d="M105.16 378.98s-.15 2.2 0 4.85c.11 1.75 1.88 4.1 2.13 4.68.64 1.46 1.35 1.69 1.35 1.69l5.51 1.35 1.93.48 6.11-1.83s2.79-7.77 1.67-12.14c-1.12-4.37-2.83-7.4-2.83-7.4s-4.98 4.88-11.47-.42l-4.4 8.74"/><path id="path932" class="shp2" d="M106.78 384.54c.1 1.75.26 3.39.51 3.97.64 1.46 1.35 1.69 1.35 1.69l5.51 1.35 2.39-.7s-7.99-1.21-7.1-8.08l-2.66 1.77"/><path id="path934" class="shp7" d="M121.8 391.38s3.03 9.41 3.22 12.62c.2 3.21-5.78 45.54-6.02 47.02-.23 1.39-1.96 2.28-1.96 2.28s-.79.47-1.93.15c-1.57-.45-2.07-.98-2.07-.98s-2.35-30.19-.9-40.98c1.46-10.78 1.48-20.11 1.48-20.11h8.18z"/><path id="path936" class="shp20" d="M108.99 391.1s-4.62 6.19-5.05 10.38c-.43 4.18-.67 18.88-1.59 22.96-.92 4.08-4.28 11.93-4.28 24.66 0 0 .35.73 1.43 1.12.34.12.81.24 1.26.35.89.2 1.8-.23 2.21-1.05 2.28-4.59 9.53-19.37 9.9-22.44.26-2.17 2.55-16.54 7.55-24.98 1.2-2.02-.74-10.07-.74-10.07l-10.69-.93z"/><path id="path938" class="shp6" d="M117.78 363.91s.11.45 1.23.38c0 0 .94-.06.92-.56 0 0-.92-.35-2.15.18z"/><path id="path940" class="shp16" d="M122.29 389.93s-1.22.96-3.63 1.01c-2.88.05-10.02-.74-10.02-.74s-.32.89-.31 1.82c0 0 8.72 2.2 13.78.33 0 0 .65-1.23.18-2.42"/><path id="path942" fill-rule="evenodd" class="shp6" d="M118.04 391.93c0-.82.59-1.49 1.31-1.49.73 0 1.32.67 1.32 1.49s-.59 1.49-1.32 1.49c-.72 0-1.31-.67-1.31-1.49zm.43 0c0 .58.4 1.05.88 1.05.49 0 .88-.47.88-1.05 0-.58-.39-1.05-.88-1.05-.48 0-.88.47-.88 1.05z"/><path id="path944" class="shp48" d="M99.25 391.63l8.93 7.78 10.65-12.23-8.93-7.78-10.65 12.23z"/><path id="path946" class="shp14" d="M110.65 391.66s3.28.38 3.27 1.16c-.01.78-.82 2.37-1.22 2.44-.41.07-2.67-2.15-2.67-2.15l.62-1.45"/><path id="path948" class="shp3" d="M109.56 370.24s-4.37.31-6.05 4.38c-1.67 4.07-4.85 10.91-4.85 12.06 0 1.15 1.77 4.7 11.31 6.74 0 0 .99-1.04.93-1.86 0 0-5.96-5.11-5.94-5.71.03-1.13.98-2.62 6.2-7.85 1.42-1.42-1.6-7.76-1.6-7.76z"/><g id="g950"><path id="path952" class="shp32" d="M531.95 507.98h-14.2l-39.73-.05c-1.04-3.07-1.53-7.06-.75-12.13 2.4-15.67 12.75-24.48 26.33-24.28 13.59.19 21.39 8.35 25.25 15.88 2.71 5.29 3.77 14.16 3.1 20.58"/></g><path id="path954" class="shp32" d="M271.46 483.11s-7.6-4.62-5.73-18.21c1.87-13.6 9.93-21.24 20.51-21.07 10.57.17 16.65 7.25 19.65 13.78 3.01 6.53 3.42 19.39.99 23.4-2.42 4.01-26.4 5.12-35.42 2.1z"/><path id="path956" class="shp32" d="M310.57 440.59s-4.99-3.04-3.76-11.97c1.23-8.94 6.52-13.96 13.48-13.85 6.95.11 10.94 4.76 12.92 9.06 1.97 4.29 2.24 12.74.65 15.38-1.6 2.64-17.36 3.36-23.29 1.38"/><g id="g958"><path id="path960" class="shp32" d="M853.58 473.05s-3.22-18.44-5.61-14.65c-2.39 3.79 5.61 14.65 5.61 14.65z"/></g><g id="g962"><path id="path964" class="shp32" d="M851.09 472.65s-5.78-10.03-6.99-8.84c-1.22 1.2 6.99 8.84 6.99 8.84"/></g><g id="g966"><path id="path968" class="shp32" d="M854.99 473.16c.01-.17-.66-14.7 2.96-13.15 3.62 1.55-2.96 13.15-2.96 13.15"/></g><g id="g970"><path id="path972" class="shp32" d="M845.92 472.65s5.75-3.01 15.57-.59c0 0 2.29 1.21 0 1.98-2.29.76-19.24 1.08-15.57-1.39z"/></g><path id="path974" class="shp32" d="M403.46 498.56s-3.22-18.44-5.61-14.65c-2.39 3.79 5.61 14.65 5.61 14.65z"/><path id="path976" class="shp32" d="M400.97 498.16s-5.78-10.04-7-8.84c-1.21 1.19 7 8.84 7 8.84z"/><path id="path978" class="shp32" d="M404.86 498.67c.03-.17-.66-14.71 2.97-13.15 3.61 1.55-2.97 13.15-2.97 13.15z"/><path id="path980" class="shp32" d="M395.81 498.16s5.74-3.01 15.56-.59c0 0 2.3 1.21 0 1.98-2.3.76-19.24 1.07-15.56-1.39"/><path id="path982" class="shp32" d="M219.49 499.73s-3.23-18.45-5.62-14.65c-2.39 3.78 5.62 14.65 5.62 14.65z"/><path id="path984" class="shp32" d="M216.99 499.33s-5.77-10.04-6.99-8.84c-1.22 1.19 6.99 8.84 6.99 8.84z"/><path id="path986" class="shp32" d="M220.89 499.84c.02-.17-.66-14.71 2.96-13.16 3.62 1.55-2.96 13.16-2.96 13.16z"/><path id="path988" class="shp32" d="M211.83 499.33s5.74-3.02 15.56-.59c0 0 2.3 1.21 0 1.97-2.29.77-19.23 1.08-15.56-1.38z"/><g id="g990"><path id="path992" class="shp4" d="M731.85 501.77l-144.54-.06 29.14-24.01 144.54.05-29.14 24.02"/></g><g id="g994"><path id="path996" class="shp49" d="M795.18 401.27s-1.21 1.8-1.9 5.57c-.61 3.31-1.15 4.53-2.02 5.21-.87.68-5.75 2.68-5.75 2.68l.36.85s7.16-.97 7.96-2.16c.8-1.2 3.86-8.26 3.63-9.89-.24-1.62-2.28-2.26-2.28-2.26"/></g><g id="g998"><path id="path1000" class="shp14" d="M790.25 438.65c.45.53-.25 1.23-1.15 1.92-.88.69-.47.68-1.58 1.79-1.11 1.11-1.85 1.12-2.06 1.01-.19-.1.23-.74.67-1.45l.17-.26c.49-.8.44-1.71.59-2.68.13-.92-.61-3.04-.61-3.04l1.46-1.56s.63 1.93.94 2.73c.18.47.64.82 1.01 1.07.19.14.4.28.56.47"/></g><g id="g1002"><path id="path1004" class="shp50" d="M789.1 440.57c-.88.69-.47.68-1.58 1.79-1.11 1.11-1.85 1.12-2.06 1.01-.19-.1.23-.74.67-1.45l.02.01s1.1-.32 1.94-1.31c.67-.81 1.13-1.88 1.6-2.44.19.14.4.28.56.47.45.53-.25 1.23-1.15 1.92"/></g><g id="g1006"><path id="path1008" class="shp18" d="M798.53 415.88s-13.92-1.04-16.54.61c-2.62 1.65 4.73 22.56 4.73 22.56s.77-.22 1.31-.61c.49-.36 1.04-1.02 1.04-1.02s.65-7-1.84-15.51c-.28-.93 11.3 2.03 13.12-1.19 1.83-3.22.32-6.41.32-6.41l-2.14 1.57"/></g><g id="g1010"><path id="path1012" class="shp14" d="M782.99 442.95c.07.7-.9.87-2.03.92-1.12.06-.78.29-2.32.57-1.54.28-2.16-.14-2.27-.35-.1-.18.61-.48 1.38-.8.09-.04.19-.08.28-.12.86-.38 1.35-1.15 2.02-1.87.63-.68 1.23-2.84 1.23-2.84l2.1-.45s-.59 1.95-.79 2.78c-.12.49.05 1.04.21 1.46.08.22.17.46.19.7"/></g><g id="g1014"><path id="path1016" class="shp50" d="M780.97 443.87c-1.13.06-.79.29-2.33.57-1.54.28-2.16-.14-2.27-.35-.1-.18.62-.48 1.38-.8l.01.01s1.09.37 2.34.03c1.02-.28 2-.89 2.71-1.08.08.22.17.46.19.7.06.7-.91.87-2.03.92"/></g><g id="g1018"><path id="path1020" class="shp29" d="M801.25 416.75s-12.36.58-14.92 2.34c-2.55 1.75-6 21.16-6 21.16s.27.19.85.23c.54.04 1.72-.32 1.72-.32s5.69-8.85 6.03-11.03c.35-2.19.17-4.12 1.14-4.21.96-.09 13.08.96 14.78-2.32 1.7-3.29-3.6-5.85-3.6-5.85"/></g><g id="g1022"><path id="path1024" class="shp39" d="M797.86 400.73c-.32-.37-.74-1.06-1.19-2.37.05.13.71 1.75 1.61 2.54 3.11 1.07 6.21 7.7 6.23 7.67 0 0 6.23-5.11 1.87-9.53-1.7-1.73-2.19-3.72-2.46-5.11-.26-1.39-2.4-7.12-6.01-4.55 0 0-.71-.12-.99-.01 0 0 .25-.01.39.08-.46.09-1.12.3-1.59.76-1.26 1.2-.65 9.02 2.14 10.52z"/></g><g id="g1026"><path id="path1028" class="shp14" d="M801.77 399.2s-1.15-.11-2.3 0c-.78.08-1.56.32-2 .5-1.09.46-.97 2.39 1.31 2.03 2.29-.36 3.15-1.96 2.99-2.53"/></g><g id="g1030"><path id="path1032" class="shp14" d="M797.56 400.61c-.01.01-.32 1.66 1.17 1.59.99-.04 3.11-1.23 2.92-2.07-.09-.4-.83-1.44-.98-3.81l-.18.05-3.01.81s.14.95.2 1.86c.05.76.05 1.48-.12 1.57"/></g><g id="g1034"><path id="path1036" class="shp49" d="M797.48 397.18s.14.95.2 1.86c1.7-.17 2.5-1.78 2.81-2.67l-3.01.81"/></g><g id="g1038"><path id="path1040" class="shp39" d="M800.78 395.85s.51-1.6.42-2.83c-.07-.87-1.29-3.86-4.29-2.62 0 0-.88.32-1.59 1.12-.56.63-1.28 1.87.5 4.29l.52.84 4.44-.8"/></g><g id="g1042"><path id="path1044" class="shp14" d="M797.4 398.56s3.94-.94 3.31-3.38c-.62-2.44-.53-4.21-3.07-3.71s-2.79 1.55-2.78 2.42c.01.87 1.5 4.86 2.54 4.67z"/></g><g id="g1046"><path id="path1048" class="shp39" d="M795.84 391.87s1.81 2.59 3.56 2.59c1.76 0 2.36-.62 2.36-.62s-1.52-.68-2.24-2.37c0 0-3.22-1.17-3.68.4"/></g><g id="g1050"><path id="path1052" class="shp39" d="M796.17 392.03s-.64.85-.68 1.52c-.03.67.21 1.97-.17 2.03 0 0-1.31-1.74-.68-3.08.66-1.41 1.53-.47 1.53-.47z"/></g><g id="g1054"><path id="path1056" class="shp51" d="M792.94 416.09c.32.4 1.34.51 2.43.69.86.15 1.76.32 2.4.7 1.46.86 6.22 3.75 7.61 3.61.54-.05.44-1.08.11-2.45-.51-2.16-1.59-5.17-1.59-6.47 0-.71-.24-2.4-.56-4.33-.02-.15-.05-.31-.07-.47-.63-3.75-1.5-8.17-1.5-8.17s-.97 2.11-2.85 2.11c-1.89 0-1.45-1.61-1.45-1.61s-1.72.21-2.12.64c-.41.44-1.44 2.33-1.65 2.85 0 0-.04.66 1.59.97 0 0-.4 1.78-.45 2.97-.03.88.61 3.63.79 5.33.06.61.07 1.08-.03 1.3-.12.27-.53.55-.99.82-.92.53-2.07 1.05-1.67 1.51z"/></g><g id="g1058"><path id="path1060" class="shp14" d="M802.29 400.6s1.43-.88 2.82.78c1.39 1.65-.99 13.47-3.04 14.08-2.29.67-9.14.63-9.14.63l.29-.83s7.11-2.29 7.4-2.67c.3-.37.94-11.8 1.67-11.99"/></g><g id="g1062"><path id="path1064" class="shp51" d="M801.77 399.2s2.95.27 3.81 1.24c.85.97 1.1 3.59 1.1 3.59s-2.6 2.1-5.72 1.29l.81-6.12"/></g><g id="g1066"><path id="path1068" class="shp39" d="M783.47 411.84l-.28-2.58 3.66 4.81s-1.53.77-1.62.62c-.09-.14-1.76-2.85-1.76-2.85"/></g><g id="g1070"><path id="path1072" d="M788.95 411.84l3.37 5.16h-5.67l-3.17-5.16h5.47z" fill="#1650a5"/></g><g id="g1074"><path id="path1076" class="shp53" d="M783.48 411.84l-.27-2.56 1.91 2.39-1.64.17z"/></g><g id="g1078"><path id="path1080" class="shp53" d="M792.15 416.73l.26-.18-3.36-4.99-.11.28 3.21 4.89z"/></g><g id="g1082"><path id="path1084" d="M789.05 411.56l-5.34.15-.24.13h5.48l.1-.28z" fill="#fcecdb"/></g><g id="g1086"><path id="path1088" class="shp14" d="M790.17 415.97c.1-.01.24-.01.37 0-.42-.19-.82-.39-.82-.39s.17-.19.88.06c.08.02.15.03.23.02l-.98-.44c.18-.16.65-.03 1.01.1.27.1.56.06.78-.11l.01-.01-.05-.01c-.57-.08-.72-.41-.56-.37.16.04 1.12.1 1.12.1.43-.02 1.3.31 1.3.31l-.48.89s-1.39.26-1.75.15c-.03-.01-.06-.02-.1-.04l-1.26-.08s.02-.14.3-.18"/></g><g id="g1090"><path id="path1092" class="shp17" d="M696.33 450.57c-.19 0-9.18 5.23-8.48 6.89.7 1.66 12.12-3.69 12.12-3.69l-3.64-3.2z"/></g><g id="g1094"><path id="path1096" class="shp16" d="M698.07 434.83s-.24-2.4 4.32-4.28c4.56-1.89 6.84 1.52 7.09 2.72.24 1.2 2.37 7.89-3.03 8.92-5.41 1.03-8.38-7.36-8.38-7.36z"/></g><g id="g1098"><path id="path1100" class="shp14" d="M698.61 454.3c1.02.7 2.29 1.28 3.89 1.65 5.98 1.38 8.27-3.67 9.13-7.14-.82-.47-1.58-.57-2.03-.63-.43-.05-.88-.08-1.26-.1-.67-.51-1.67-2.62-1.9-5.89l-.27.08-4.72 1.29s.22 1.49.32 2.91c.09 1.11.04 1.8.04 1.8-.37.07-.74.76-.74.76v.01c-.07.1-1.44 2.35-2.46 5.26"/></g><g id="g1102"><path id="path1104" class="shp17" d="M701.45 443.56s.22 1.49.32 2.91c2.67-.27 3.91-2.81 4.39-4.2l-4.71 1.29z"/></g><g id="g1106"><path id="path1108" class="shp14" d="M700.65 444.96s6.34-.35 6.06-4.29c-.28-3.94.35-6.64-3.71-6.59-4.06.06-4.74 1.62-4.97 2.96-.22 1.34.96 7.92 2.62 7.92"/></g><g id="g1110"><path id="path1112" class="shp16" d="M698.07 434.83c.89-1.25 1.65-1.05 2.09-.72 3.32-2.15 5.76.5 5.76.5.62 2.8 2.78 4.27 2.78 4.27s-1.1.8-3.81.31c-.83-.15-1.6-.68-2.26-1.33 1.2 1.72 2.76 2.92 2.76 2.92-3.28-1.24-4.88-5.57-5.04-6.03-.36.38-1.07 1.18-1.24 1.94-.25 1.03-.49 2.09-1.1 2.06 0 0-1.28-2.03.06-3.92"/></g><g id="g1114"><path id="path1116" class="shp48" d="M713.43 467.19c.57-2.93 2.44-14.62.57-18.38-.67-1.35-3.3-1.48-6.18-1.36-.9.58-4.32 2.77-5.73 2.5-.02 0-.04-.01-.08-.02-.66-.17-.76-1.26-.2-1.66 0 0-1.59.49-3.36.83-1 .18-4.04 2.23-4.04 2.23s1.69 1.81 3.7 2.66c-.34 3.06.17 4.4 3.33 11.46 2.68 5.96-.35 11.33-.35 11.33s15.76 12.68 15.85 6.22c.06-4.86-4.24-12.07-3.51-15.81z"/></g><g id="g1118"><path id="path1120" d="M700.31 490.56c-.86-.1-1.63-.56-2.11-1.28-.08-.11-.16-.24-.25-.37-1.79-2.71-2.48-11.03-6.52-19.9-.99-2.15-4.52-2.54-5.48-4.98 0 0-2.36-7.9 4.53-8.14 6.91-.23 18.49 22 18.67 24.33.18 2.26 4.56 11.85-8.84 10.34" fill="#dd6d22"/></g><g id="g1122"><path id="path1124" class="shp56" d="M672.88 490.38h9.82s.37-1.57-.28-2.63c-.57-.95-.35-1.48.07-2.26-.44.18-1.02.34-1.65.31-.49-.03-1.01-.25-1.47-.52-.42.49-2.23 2.54-2.79 2.94-.65.46-3.51.3-3.7 2.16z"/></g><g id="g1126"><path id="path1128" class="shp56" d="M712.4 451.87s1.28 11.63-7.01 14.07c-8.3 2.43-10.65-10.7-3.96-11.65 6.7-.94 10.97-2.42 10.97-2.42z"/></g><g id="g1130"><path id="path1132" class="shp7" d="M685.73 458.18c-.59 4.43-2.9 18.43-6.98 25.25-1.31 2.21 3.31 3.44 3.34 3.43.62-.16 1.65-1.15 2.13-1.58 3.31-2.98 10.02-11.42 10.02-18.18 0-3.3.06-9.61-2.34-11.21-1.48-.98-5.93.53-6.17 2.29"/></g><g id="g1134"><path id="path1136" class="shp20" d="M706.16 490.38s-.36-.51-.99-1.47c-.76-1.14-1.6-3.39-2.61-6.28-1.07-3.03-2.33-6.76-3.91-10.63-.49-1.2-1.01-2.41-1.56-3.63-.98-2.15-3.68-1.86-4.65-4.29 0 0-3.75-8.46 3.15-8.69 6.9-.23 20.01 22.62 20.77 24.83.82 2.42 4.85 12.48-10.2 10.16"/></g><g id="g1138"><path id="path1140" class="shp48" d="M680.09 490.38h9.82s.37-1.57-.28-2.63c-.57-.95-.35-1.48.08-2.26-.45.18-1.03.34-1.66.31-.49-.03-1-.25-1.46-.52-.42.49-2.23 2.54-2.8 2.94-.64.46-3.5.3-3.7 2.16z"/></g><g id="g1142"><path id="path1144" class="shp7" d="M702.56 482.63c-1.07-3.03-2.33-6.76-3.91-10.63.42-2.94 1.3-5.51 2.8-6.55 0 0 3.63 11.24 1.11 17.18"/></g><g id="g1146"><path id="path1148" class="shp20" d="M691.46 457.87c-.59 4.43-1.43 18.74-5.5 25.56-1.31 2.21 3.31 3.44 3.34 3.43.62-.16 1.65-1.15 2.13-1.58 3.3-2.98 10.02-11.42 10.02-18.18 0-3.3-3.87-9.34-6.28-10.94-1.47-.99-3.48-.06-3.71 1.71"/></g><g id="g1150"><path id="path1152" class="shp14" d="M711.63 448.81s-13.94 5.13-16.04 5.02c-1.35-.06-12.6-4.02-12.6-4.02l-1.02 1.91s10.96 7.04 13.97 7.01c5.94-.07 15.98-3.72 17.11-4.44 1.13-.71 1.87-4.76-1.42-5.48"/></g><g id="g1154"><path id="path1156" class="shp14" d="M682.98 449.81s-1.01-1.55-2.01-1.6c-1.01-.05-2.75.68-3.34.8-.59.12-2.28.66-1.78 1.49.5.82 2.83 1 3.84.82 1-.18 2.28.4 2.28.4l1.01-1.91"/></g><g id="g1158"><path id="path1160" class="shp14" d="M681.24 448.26s-1.6-.74-2.06-.87c-.45-.14-.36 0-.23.43.14.44.96.85.96.99 0 .13 1.33-.55 1.33-.55"/></g><g id="g1162"><path id="path1164" class="shp6" d="M699.46 442.7s.6-.24 2.29-.1c0 0-.09.65-1.34.72-.7.04-.95-.62-.95-.62z"/></g><g id="g1166"><path id="path1168" class="shp48" d="M704.44 451.34s1.25 3.95 5.53 4.84c0 0 7.07-2.18 3.55-6.99 0 0-3.48-2.59-9.08 2.15z"/></g><g id="g1170"><path id="path1172" class="shp16" d="M707 430.79s1.63-2.3 5.78-1.1c4.17 1.19 2.06 6.31 3.45 7.74 1.39 1.44 3.25 4.39 0 5.59-3.25 1.21-5.93 1.45-5.12-3.05.82-4.5.29-9.14-3.63-8.13l-.48-1.05z"/></g><g id="g1174"><path id="path1176" class="shp57" d="M640.45 482.25c.35-.81 5.62-14.62 9.7-14.62 2.19 0 4.15.5 3.69 4.11-.47 3.6-4.5 23.16-7.03 22.88-2.53-.27-6.36-12.37-6.36-12.37z"/></g><g id="g1178"><path id="path1180" class="shp57" d="M655.26 491.77c-.08.59-.2 1.82-.06 2.52.04.2.21.33.4.33h6.59c.31 0 .51-.33.36-.61-.35-.6-.93-1.46-1.58-1.74-.82-.34-1.58-.82-1.86-1a.43.43 0 00-.25-.07l-3.22.22c-.2.01-.35.16-.38.35"/></g><g id="g1182"><path id="path1184" class="shp16" d="M657.14 470.08s2.05 19.72 2.28 21.36c0 0-3.17.63-4.11 0-.96-.63-4.93-11.22-4.84-13.12.09-1.9 6.67-8.24 6.67-8.24z"/></g><g id="g1186"><path id="path1188" class="shp16" d="M643.73 482.25c.35-.81 5.61-14.62 9.7-14.62 2.2 0 4.15.5 3.69 4.11-.47 3.6-4.49 23.16-7.02 22.88-2.54-.27-6.37-12.37-6.37-12.37"/></g><g id="g1190"><path id="path1192" class="shp16" d="M628.17 485.1s-1.57 9.02 5.11 9.52c6.68.51 15.78.4 16.82 0 1.03-.39 4.32-8.22-1.87-9.77-6.2-1.56-20.06.25-20.06.25z"/></g><g id="g1194"><path id="path1196" class="shp6" d="M647.3 472.75c.54-2.78 2.31-13.89.54-17.46-.64-1.29-3.14-1.4-5.88-1.29-.85.55-4.1 2.63-5.44 2.38-.01-.01-11.95 6.99-8.94 13.7 1.38 3.06.89 7.7.14 11.3-.64 3.1 1.28 6.15 4.36 6.88 7.19 1.69 16.09.77 16.14-3.41.07-4.62-1.62-8.55-.92-12.1"/></g><g id="g1198"><path id="path1200" class="shp14" d="M643.96 461.03s6.25 10.26 10.57 12.33c0 0 1.98-3.11-1.73-8.38-3.71-5.27-5.13-10.78-6.26-10.3-1.13.47-2.58 6.35-2.58 6.35"/></g><g id="g1202"><path id="path1204" class="shp14" d="M653.43 467.63s3.43-.06 4.29.81c.87.86-.34 5.26-3.19 4.92l-1.1-5.73z"/></g><g id="g1206"><path id="path1208" class="shp6" d="M646.26 454.24s1.68.03 3.25 3.62c0 0-1.63 6.35-5 5.78-3.37-.56 1.75-9.4 1.75-9.4z"/></g><g id="g1210"><path id="path1212" class="shp16" d="M640.36 437.72s-4.05-.77-6.07.7c-3.64 2.66-3.84 11.85-5.21 13.22-1.36 1.37-4.66.79-4.95 7.87-.3 7.08 1.31 7.67-.6 10.83-1.92 3.16.81 6.32.81 6.32s-1.12-1.74-.64-3c0 0 2.38 3.43 3.99 4.39 4.39 2.62 9.28 1.69 11.68.08.35-.24.75-.38 1.17-.45 1.19-.2 3.7-1.77 2.78-11.7-.51-5.45 2.96-10.9 1.52-13.27 0 0 .64 1.02.72 2.14 0 0 .87-1.66-.64-3.21-1.5-1.55 1.77-4.76 1.29-8.47-.34-2.55-2.13-5.34-5.85-5.45z"/></g><path id="path1214" class="shp32" d="M177.83 507.82H64.01c-16.18 0-30.6-10.27-35.87-25.58-.45-1.31-.88-2.55-1.25-3.68-2.16-6.68-4.53-14.35-6.94-22.82 0 0 18.49-4.88 38.77 5.44C79 471.51 72.11 487.96 95.07 484.9c22.96-3.06 58.84-6.89 71.52 3.83 6.84 5.78 9.88 13.35 11.24 19.09"/><path id="path1216" class="shp32" d="M153.05 487.01s7.6-12.25 12.22-10.43c4.61 1.81-10.31 10.43-10.31 10.43h-1.91z"/><path id="path1218" class="shp32" d="M149.7 484.13s1.34-8.11 4.59-7.74c3.25.38-1.63 7.74-1.63 7.74h-2.96z"/><path id="path1220" class="shp32" d="M57.19 466.16s10.71-12.83 14.35-11.97c3.63.86-12.56 12.39-12.56 12.39l-1.79-.42z"/><path id="path1222" class="shp32" d="M55.04 462.59s1.66-8.8 4.59-8.67c2.93.13-2.3 8.67-2.3 8.67h-2.29"/><path id="path1224" class="shp32" d="M62.75 466.58s16.12-3.38 16.76 0c.64 3.38-16.76 0-16.76 0"/><g id="g1226"><path id="path1228" class="shp32" d="M576.06 451.63c0 4.62-40.05 8.37-89.46 8.37s-89.46-3.75-89.46-8.37c0-4.63 40.05-8.38 89.46-8.38s89.46 3.75 89.46 8.38z"/></g><g id="g1230"><path id="path1232" d="M452.69 452.12s-6.2-3.49-2.79-12.3 10.95-17.59 26.15-18.71c15.21-1.12 23.72-.3 31.48 5.42 7.76 5.72 18.45 13.78 15.2 21.83-3.26 8.06-57.49 6.43-70.04 3.76" fill="#73a567"/></g><path id="path1234" class="shp39" d="M386.48 359.98s-3.06.3-4.8 2.91c-1.2 1.82-.99 6.07-2.62 7.54-1.63 1.46-1.3 4.36.76 5.57 2.07 1.22 13.01 2.07 16.42-.82 3.4-2.89-1.18-4.5-.93-9.38.11-2.26-3.08-6.48-8.83-5.82"/><path id="path1236" class="shp49" d="M376.07 407.55s-1.66 1.66-1.91 2.21-.61 1.92.63 2.03c1.24.12 1.74-.07 1.91-.67.18-.59.53-2.56.53-2.56l-1.16-1.01"/><path id="path1238" class="shp14" d="M381.96 379.06s-3.2.87-4.12 5.07c-.91 4.19-.04 13.17-.84 15.98-.8 2.81-1.79 7.95-1.79 7.95s1.12.91 2.32.85c0 0 6.1-8.94 6.16-11.36.05-2.42-1.73-18.49-1.73-18.49z"/><path id="path1240" class="shp16" d="M406.26 460.67s1.93 1.75 1.55 3c-.37 1.24-2.11 2.07-2.34 3.6-.24 1.52-1.17 2.35-2.02 2.35h-4.03s-.62-1.07.88-1.39c1.5-.32 2.07-2.12 1.98-3.78-.1-1.66.14-3.88.14-3.88l3.19-.74.65.84"/><path id="path1242" class="shp16" d="M389.99 461.41s.69 7.43-.16 7.85l-10.8-.02s0-1.25 1.74-1.53c1.73-.27 4.78-1.29 5.3-3.55.51-2.27 3.92-2.75 3.92-2.75"/><path id="path1244" class="shp14" d="M397.69 408.07c-2.23-4.98-3.59-6.42-3.33-7.96.2-1.16-.59-21.48-.59-21.48-.26-.08-.79-.15-1.08-.22-.91-.2-1.67-.84-1.98-1.72-.38-1.06-.68-2.63-.67-4.59l-.29.06-4.78.95s.1 1.5.11 2.93v.03c0 1.23-.81 2.32-1.99 2.66-.61.18-1.13.33-1.13.33s-1.76 5.02-2.1 10.17c-.33 5.16 3.2 7.4-.02 17.71-3.3 10.52 19.07 3.89 17.85 1.13z"/><path id="path1246" class="shp21" d="M384.97 373.11s.1 1.5.11 2.93c2.68-.08 4.09-2.53 4.67-3.88l-4.78.95z"/><path id="path1248" class="shp14" d="M384.07 374.45s6.34.11 6.35-3.84c0-3.95.82-6.6-3.23-6.83-4.05-.24-4.83 1.27-5.16 2.59-.32 1.32.39 7.95 2.04 8.08"/><path id="path1250" class="shp39" d="M384.3 363.68s1.74 4.63 4.41 5.32c2.66.68 3.81-.03 3.81-.03s-2.04-1.62-2.46-4.45c0 0-4.44-3.05-5.76-.84z"/><path id="path1252" class="shp39" d="M384.73 364.06s-1.28.48-1.81 1.42c-.52.92-.96 2.13-.86 3.62 0 0-1.31-3.15.16-4.93 1.56-1.89 2.51-.11 2.51-.11z"/><path id="path1254" class="shp47" d="M385.45 372s-.44.58-1.31.54c-.71-.04-.98-.65-.98-.65s1.3-.31 2.29.11z"/><path id="path1256" class="shp6" d="M396.82 387.62s-.02 3.01-.18 5.73c-.11 1.81-.28 3.49-.53 4.09-.65 1.5-1.39 1.74-1.39 1.74l-5.67 1.39-1.99.49-6.3-1.88s-2.86-7.99-1.71-12.5c1.15-4.5 2.91-7.62 2.91-7.62s5.13 5.02 11.81-.43l3.05 8.99"/><path id="path1258" class="shp7" d="M381.16 400.39s-3.11 9.7-3.31 13c-.2 3.3 5.95 46.9 6.2 48.42.23 1.43 2.02 2.35 2.02 2.35s.81.48 1.98.15c1.62-.46 2.14-1.01 2.14-1.01s2.42-31.09.92-42.19c-1.5-11.11-1.52-20.72-1.52-20.72h-8.43z"/><path id="path1260" class="shp20" d="M394.36 400.11s4.75 6.37 5.2 10.68c.44 4.31.69 19.45 1.64 23.65.94 4.2 4.41 12.29 4.41 25.39 0 0-.36.75-1.48 1.15-.35.13-.83.26-1.29.36-.92.21-1.86-.24-2.28-1.08-2.35-4.72-9.81-19.94-10.19-23.1-.28-2.24-2.63-17.04-7.78-25.72-1.23-2.09.76-10.38.76-10.38l11.01-.95z"/><path id="path1262" class="shp6" d="M385.31 372.11s-.11.46-1.27.39c0 0-.97-.06-.94-.57 0 0 .94-.37 2.21.18z"/><path id="path1264" class="shp16" d="M380.67 398.9s1.25.99 3.73 1.04c2.97.06 10.32-.76 10.32-.76s.33.92.32 1.88c0 0-8.98 2.26-14.19.33 0 0-.67-1.26-.18-2.49"/><path id="path1266" class="shp39" d="M409.36 412.89l-13.57 4.99-2.8-7.61 13.57-4.99 2.8 7.61z"/><path id="path1268" d="M392.99 410.27s4.38 2.73 8.56.98c4.19-1.75 5.01-5.97 5.01-5.97l-13.57 4.99z" fill="#235187"/><path id="path1270" fill-rule="evenodd" d="M394.99 410.26a.789.789 0 01-.89-.67.78.78 0 01.67-.88c.43-.07.83.23.89.66.05.43-.24.83-.67.89zm-.63-.7c.04.28.3.48.59.44.29-.04.49-.3.45-.59a.534.534 0 00-.59-.45.53.53 0 00-.45.6z" fill="#17467f"/><path id="path1272" class="shp14" d="M403.84 411.03s.01 1.15.23 1.7c.21.56.87 1.29 1.08 1.29.22 0-.2-1.15-.09-1.12.11.02.64 1.92 1.02 1.96.38.05.72-2.13.53-2.98-.2-.86-1.06-1.88-1.06-1.88l-1.71 1.03"/><path id="path1274" class="shp14" d="M393.77 378.63s3.51.48 5.4 4.2c1.46 2.87 2.46 11.91 3.49 14.76.98 2.72 1.99 7.4 2.75 11.62.06.32.14.79.14.79l-1.71 1.03c.16.31-.56-1.19-.73-1.55-2.65-5.84-3.4-8.5-4.98-12.96-.59-1.69-2.49-5.44-3.25-6.67-1.85-3-3.29-4.15-2.25-7.51l1.14-3.71"/><path id="path1276" class="shp49" d="M375.42 408.22s-1.15.58-1.42.96c-.28.39-.76.9-.46.97.3.06 1.18-.6 1.18-.6l.7-1.33z"/><path id="path1278" class="shp14" d="M374.16 410.64s1.05-.76 1.7-.49c.64.27.69 1.29.49 1.51-.2.21-1.83.45-2.26-.13-.44-.57.07-.89.07-.89z"/><path id="path1280" class="shp6" d="M383.09 378.73s4.52 1.51 9.6-.32c0 0 3.48.15 5.05 1.97 1.56 1.82 3.44 6.62 3.44 6.62s-1.81 3.78-6.82 3.85c-5.02.07-15.49-3.18-15.49-3.18s-1.33.42-2.41-.38c0 0 1.1-5.24 2.73-6.73 1.64-1.49 3.9-1.83 3.9-1.83z"/><path id="path1282" d="M394.54 408.92c-.03-.13-2.63-12.78-3.49-19.98-.44-3.78-.23-6.52.02-8.15.28-1.78.95-2.59.97-2.62l.27.04c-.01.03-1.7 3.56-.86 10.68.85 7.18 3.45 19.82 3.48 19.94l-.39.09" fill="#0c2442"/></g></g></svg>