<svg version="1.2" baseProfile="tiny-ps" xmlns="http://www.w3.org/2000/svg" viewBox="0 0 616 411"><style>.shp2{fill:#aec3ff}.shp3{fill:#0b0755}.shp4{fill:#8c9df4}.shp5{fill:#6980e2}.shp6{fill:#f99746}.shp7{fill:#2b478b}.shp10{fill:#233862}.shp11{fill:#c8dbf4}.shp12{fill:#d4e4f8}.shp16{fill:#b7d3f3}.shp17{fill:#2a539b}.shp18{fill:#4075c1}.shp19{fill:#163560}.shp20{fill:#ed7d2b}.shp21{fill:#fff}.shp23{fill:#ffb27d}.shp24{fill:#e8945b}.shp25{fill:#b5453c}.shp26{fill:#efcbab}.shp27{fill:#ff9e55}.shp28{fill:#ed823a}.shp30{fill:#ed975d}.shp31{fill:#bc3f3f}.shp32{fill:#ed985f}.shp33{fill:#2c3a64}.shp36{fill:#1c468a}.shp37{fill:#dd772a}.shp39{fill:#f77d48}.shp40{fill:#bdd1f9}.shp44{fill:#5c71b7}.shp45{fill:#b64c41}.shp47{fill:#152847}.shp51{fill:#efdece}</style><g id="g10"><g id="g12"><g id="g18"><path id="path20" d="M575.43 324.72c-32.94 0-523.36.07-523.63-.49l-.05-.07s-.05-.07-.05-.1c-.18-.28-73.94-79.11 40.73-133.99 44.87-21.47-2.81-35.65 32.87-59.55 41-27.47 89.09 11.63 131.35-9.54 128.02-64.13 264.66-29.97 294.25-9.52 5.96 4.12 37.84 24.36 21.12 61.92-9.3 20.91-8.31 48.25 8.8 71.83 31.46 43.37-4.93 78.81-5.39 79.51z" fill="#ebf3fa"/></g><g id="g22"><path id="path24" d="M552.6 291.5s1.29-6.8-6.54-9.27c-7.82-2.46-155.73-2.76-158.38-1.3-2.65 1.46-8.99 10.57-8.99 10.57H552.6z" fill="#c0d4ff"/></g><g id="g26"><path id="path28" class="shp2" d="M556.05 219.31H378.69v-28.46h177.36v28.46z"/></g><g id="g30"><path id="path32" class="shp2" d="M555.78 319.52H378.69v-28.46h177.09v28.46z"/></g><g id="g34"><path id="path36" class="shp2" d="M385.6 303.21h-6.91v21.78h6.91v-21.78z"/></g><g id="g38"><path id="path40" class="shp2" d="M556.05 296.03h-6.91v28.96h6.91v-28.96"/></g><g id="g42"><path id="path44" class="shp2" d="M556.05 310.51h-3.45V195.03h3.45v115.48z"/></g><g id="g46"><path id="path48" class="shp2" d="M556.05 195.99H530.6V144.2h25.45v51.79z"/></g><path id="path50" class="shp2" d="M363.39 325.46h-91.56V165.97h91.56v159.49z"/><path id="path52" class="shp3" d="M318.07 325.46h-.92V165.97h.92v159.49z"/><path id="path54" class="shp3" d="M321.1 245.74a1.947 1.947 0 012.2-1.64c1.06.16 1.79 1.14 1.64 2.2a1.947 1.947 0 01-2.2 1.64 1.947 1.947 0 01-1.64-2.2z"/><path id="path56" class="shp4" d="M314.93 322.69h-40.4V168.6h40.4v154.09z"/><path id="path58" class="shp5" d="M288.77 247.16h26.16v-2.77h-26.16v2.77z"/><path id="path60" class="shp5" d="M288.77 187.37h26.16v-1.38h-26.16v1.38z"/><path id="path62" class="shp5" d="M288.77 273.81h26.16v-2.77h-26.16v2.77z"/><path id="path64" class="shp5" d="M288.77 300.46h26.16v-2.77h-26.16v2.77z"/><path id="path66" class="shp6" d="M312.01 241.32h-10.17c-.61 0-1.1.72-1.1 1.62 0 .89.49 1.61 1.1 1.61h10.17c.6 0 1.09-.72 1.09-1.61 0-.9-.49-1.62-1.09-1.62z"/><path id="path68" class="shp7" d="M312.01 238.09h-10.17c-.61 0-1.1.72-1.1 1.61 0 .9.49 1.62 1.1 1.62h10.17c.6 0 1.09-.72 1.09-1.62 0-.89-.49-1.61-1.09-1.61z"/><path id="path70" class="shp6" d="M312.01 234.85h-10.17c-.61 0-1.1.73-1.1 1.62 0 .89.49 1.62 1.1 1.62h10.17c.6 0 1.09-.73 1.09-1.62 0-.89-.49-1.62-1.09-1.62z"/><path id="path72" d="M311.49 182.75h-15.02c-.89 0-1.62.73-1.62 1.62 0 .89.73 1.62 1.62 1.62h15.02c.89 0 1.61-.73 1.61-1.62 0-.89-.72-1.62-1.61-1.62z" fill="#060633"/><path id="path74" d="M311.49 179.52h-15.02c-.89 0-1.62.72-1.62 1.62 0 .89.73 1.61 1.62 1.61h15.02c.89 0 1.61-.72 1.61-1.61 0-.9-.72-1.62-1.61-1.62z" fill="#3862c1"/><path id="path76" class="shp6" d="M311.49 176.28h-15.02c-.89 0-1.62.73-1.62 1.62 0 .89.73 1.62 1.62 1.62h15.02c.89 0 1.61-.73 1.61-1.62 0-.89-.72-1.62-1.61-1.62z"/><path id="path78" class="shp5" d="M295.26 325.46h-20.2V165.97h20.2v159.49z"/><path id="path80" class="shp5" d="M293.65 325.46h-20.21V165.97h20.21v159.49z"/><path id="path82" class="shp5" d="M271.83 188.41h-1.04v-7.54h1.04v7.54z"/><path id="path84" class="shp5" d="M271.83 255.78h-1.04v-7.54h1.04v7.54z"/><path id="path86" class="shp5" d="M293.65 325.46h-20.21V165.97h20.21v159.49z"/><path id="path88" class="shp5" d="M292.03 325.46h-20.2V165.97h20.2v159.49z"/><path id="path90" class="shp10" d="M291.44 246c0 1.3-.6 2.36-1.34 2.36-.74 0-1.33-1.06-1.33-2.36 0-1.3.59-2.35 1.33-2.35.74 0 1.34 1.05 1.34 2.35z"/><path id="path92" class="shp11" d="M319.68 143.26s3.61-4.21.22-6.89c0 0-2.47-1.5-4.49-1.37 0 0 2.86 4.79 1.93 5.27-.92.47-2.79-5.57-2.79-5.57s-5.63-.55-7.44.32c0 0 4.81 3.94 3.8 4.17-1.02.24-6.21-3.63-6.21-3.63s-5.24.9-4.96 4.09c.28 3.2 2.08 4.18 2.88 4.1.79-.09 5.43-1.86 5.53-1.21.1.65-2.69 2.78-4.65 2.88 0 0 3.7 4.07 6.15 2.9 2.45-1.18 2.66-3.04 4.19-3.74 1.53-.7 2.84-.7 2.21.01-.64.71-3.4 1.41-4.28 2.96-.87 1.54-1.66 2.59.88 2.21 2.54-.39 6.67-2.24 6.85-4.37l.18-2.13"/><path id="path94" class="shp11" d="M302.31 139.74s14.23-.55 17.37 3.52c0 0 .69 2.08 2.83 3.98l.33.91s-2.46-2.61-3.34-2.76c0 0 1.38-5.04-17.19-5.65"/><path id="path96" class="shp11" d="M322.51 147.24s3.05 2.26 3.27 6.29l-.56.05s-.97-4.17-2.74-5.81c-1.76-1.63.03-.53.03-.53z"/><path id="path98" class="shp11" d="M332.29 137.96s-5.74-3.21-3.06-7.58c0 0 2.14-2.68 4.44-3.37 0 0-1.22 6.51 0 6.66 1.22.16.84-7.34.84-7.34s6.05-2.91 8.42-2.68c0 0-3.75 6.35-2.53 6.2 1.23-.16 5.44-6.59 5.44-6.59s6.2-1.15 7.19 2.53c.99 3.68-.61 5.51-1.53 5.74-.92.23-6.81.16-6.66.92.16.77 4.14 1.99 6.35 1.3 0 0-2.44 6.05-5.66 5.74-3.21-.3-4.21-2.29-6.2-2.45-1.99-.15-3.44.39-2.44.92.99.54 4.36.18 5.96 1.55 1.61 1.36 2.91 2.2-.07 2.82-2.99.61-8.35.23-9.41-2.07l-1.08-2.3"/><path id="path100" class="shp11" d="M350.2 126.94s-16.07 5.2-17.91 11.02c0 0 .08 2.61-1.53 5.59v1.15s1.69-3.9 2.61-4.44c0 0-3.6-5.05 16.83-13.32z"/><path id="path102" class="shp11" d="M330.76 143.55s-2.48 3.77-1.06 8.35l.63-.17s-.61-5.05.68-7.59c1.3-2.54-.25-.59-.25-.59"/><path id="path104" class="shp12" d="M323.16 133.53s7.57-4.24 4.04-9.99c0 0-2.83-3.54-5.85-4.44 0 0 1.61 8.57 0 8.78-1.62.2-1.11-9.69-1.11-9.69s-7.97-3.84-11.1-3.53c0 0 4.94 8.37 3.33 8.17-1.61-.2-7.16-8.68-7.16-8.68s-8.17-1.51-9.48 3.33c-1.31 4.85.81 7.27 2.01 7.57 1.21.3 8.98.2 8.78 1.21-.2 1.01-5.45 2.62-8.37 1.72 0 0 3.23 7.97 7.46 7.57 4.24-.41 5.55-3.03 8.17-3.23 2.63-.21 4.54.5 3.23 1.21s-5.75.23-7.87 2.03c-2.11 1.8-3.83 2.91.1 3.72 3.94.81 11 .3 12.41-2.72l1.41-3.03"/><path id="path106" class="shp12" d="M299.56 118.99s21.18 6.87 23.6 14.54c0 0-.1 3.43 2.02 7.36v1.52s-2.22-5.15-3.43-5.85c0 0 4.74-6.67-22.19-17.57"/><path id="path108" class="shp12" d="M325.18 140.89s3.27 4.97 1.4 11.01l-.84-.23s.82-6.65-.89-10c-1.71-3.34.33-.78.33-.78"/><path id="path110" class="shp12" d="M323.42 165c-8.19 0-14.82-6.64-14.82-14.82h29.64c0 8.18-6.64 14.82-14.82 14.82z"/><path id="path112" class="shp12" d="M308.4 165.76h30.04c0-1.01-.82-1.83-1.83-1.83h-26.39c-1.01 0-1.82.82-1.82 1.83"/><path id="path114" d="M308.26 150.63h30.46v-.45h-30.46v.45z" fill="#9fc1f4"/><path id="path116" d="M181.16 210.87h-18.77c-.86 0-1.57-.7-1.57-1.56v-18.13c0-.86.71-1.57 1.57-1.57h18.77c.86 0 1.56.71 1.56 1.57v18.13c0 .86-.7 1.56-1.56 1.56z" fill="#c0d8fb"/><path id="path118" d="M180.34 209.95H163.2c-.79 0-1.43-.64-1.43-1.43v-16.55c0-.79.64-1.43 1.43-1.43h17.14c.79 0 1.44.64 1.44 1.43v16.55c0 .79-.65 1.43-1.44 1.43z" fill="#dfebfd"/><path id="path120" class="shp16" d="M171.32 192.48c0-.26.2-.46.45-.46s.46.2.46.46c0 .25-.21.45-.46.45s-.45-.2-.45-.45z"/><path id="path122" class="shp16" d="M174.98 193.12c.12-.22.4-.3.62-.18.22.12.3.4.17.62-.12.22-.39.3-.61.17a.447.447 0 01-.18-.61"/><path id="path124" class="shp16" d="M178.12 195.61c.21-.14.49-.07.62.14.14.21.08.49-.13.62-.21.14-.49.08-.63-.13a.465.465 0 01.14-.63"/><path id="path126" class="shp16" d="M179.67 199.47c.25 0 .45.2.45.45s-.2.46-.45.46-.45-.21-.45-.46.2-.45.45-.45z"/><path id="path128" class="shp16" d="M178.88 203.95c.17.17.17.46 0 .64-.18.18-.47.18-.64 0a.447.447 0 010-.64c.17-.18.46-.18.64 0z"/><path id="path130" class="shp16" d="M176.03 206.81c.18.17.18.46 0 .64s-.47.18-.64 0a.447.447 0 010-.64c.17-.18.46-.18.64 0z"/><path id="path132" class="shp16" d="M171.32 208.28c0-.25.2-.46.45-.46s.46.21.46.46-.21.45-.46.45-.45-.2-.45-.45z"/><path id="path134" class="shp16" d="M168.55 193.12c-.12-.22-.4-.3-.62-.18-.21.12-.29.4-.17.62a.452.452 0 00.79-.44z"/><path id="path136" class="shp16" d="M165.41 195.61a.442.442 0 00-.62.14.44.44 0 00.13.62c.21.14.49.08.63-.13.14-.21.08-.49-.14-.63z"/><path id="path138" class="shp16" d="M163.86 199.47c-.25 0-.45.2-.45.45s.2.46.45.46.46-.21.46-.46-.21-.45-.46-.45z"/><path id="path140" class="shp16" d="M164.65 203.95c-.17.17-.17.46 0 .64.18.18.47.18.65 0 .17-.18.17-.47 0-.64a.459.459 0 00-.65 0z"/><path id="path142" class="shp16" d="M167.5 206.81c-.17.17-.17.46 0 .64.18.18.47.18.65 0 .17-.18.17-.47 0-.64a.459.459 0 00-.65 0z"/><path id="path144" class="shp16" d="M171.65 199.92c0-.25.2-.45.45-.45s.46.2.46.45-.21.46-.46.46-.45-.21-.45-.46z"/><path id="path146" class="shp16" d="M172.17 199.92h-.13v-5.67h.13v5.67z"/><path id="path148" class="shp16" d="M172.16 200.06l-.23-.29 3.01-2.36.23.29-3.01 2.36"/><g id="g150"><path id="path152" class="shp17" d="M420.6 208.44c-2.37-.79-4.01.21-4.01.21-6.82.28-7.08 7.27-6.28 9.88 1.13 3.66-2.85 6.54 1.56 8.02 5.12 1.72 9.42-.99 9.13-.11 16.2 1.28 4.99-16.21-.4-18"/></g><g id="g154"><path id="path156" class="shp7" d="M413.52 242.47s-.65 1.29-1.82 2.76c-1.42 1.78-8.86-2.43-8.22-2.76.64-.32 4.26-10.61 5.8-12.43 1.42-1.69 3.4-2.07 3.4-2.07l.84 14.5"/></g><g id="g158"><path id="path160" class="shp18" d="M438.63 315.15s2.05 1.87 1.65 3.21c-.4 1.33-2.26 2.22-2.51 3.84-.24 1.63-1.25 2.52-2.15 2.52h-4.3s-.66-1.15.94-1.49c1.61-.35 2.21-2.26 2.11-4.04-.1-1.77.15-4.14.15-4.14l3.4-.79.71.89z"/></g><g id="g162"><path id="path164" class="shp18" d="M421.25 315.94s.74 7.95-.16 8.39l-11.54-.02s0-1.34 1.85-1.63c1.85-.3 5.11-1.38 5.66-3.8.55-2.42 4.19-2.94 4.19-2.94z"/></g><g id="g166"><path id="path168" class="shp7" d="M430.12 237.12s.18 2.42 0 5.33c-.11 1.93-2.06 4.51-2.34 5.15-.69 1.61-1.48 1.87-1.48 1.87l-6.05 1.48-2.13.52-6.72-2s-3.06-8.55-1.83-13.36c1.23-4.81 3.11-8.14 3.11-8.14s4.56-1.03 12.61-.46l4.83 9.61z"/></g><g id="g170"><path id="path172" class="shp19" d="M430.7 242.52c-.12 1.93-2.64 4.44-2.92 5.08-.7 1.61-1.48 1.87-1.48 1.87l-6.05 1.48-1.62-2.28s9.8-2.73 7.95-11.38l4.12 5.23"/></g><g id="g174"><path id="path176" class="shp20" d="M411.83 250.76s-3.33 10.36-3.54 13.89c-.21 3.53 6.36 50.1 6.62 51.72.25 1.53 2.15 2.51 2.15 2.51s.88.52 2.13.16c1.73-.49 2.27-1.07 2.27-1.07s2.59-33.22.99-45.08c-1.6-11.87-1.62-22.13-1.62-22.13h-9"/></g><g id="g178"><path id="path180" class="shp6" d="M425.92 250.45s5.07 6.82 5.55 11.42c.47 4.6.74 20.78 1.74 25.27 1.01 4.48 4.71 13.12 4.71 27.12 0 0-.38.8-1.57 1.23-.38.14-.89.27-1.38.38-.98.23-1.99-.25-2.43-1.15-2.51-5.04-10.48-21.31-10.89-24.68-.29-2.39-2.81-18.2-8.3-27.48-1.31-2.23.81-11.09.81-11.09l11.76-1.02z"/></g><g id="g182"><path id="path184" class="shp19" d="M411.3 249.17s1.33 1.05 3.98 1.11c3.17.06 11.02-.81 11.02-.81s.35.97.34 2c0 0-9.59 2.42-15.15.36 0 0-.71-1.35-.19-2.66"/></g><g id="g186"><path id="path188" fill-rule="evenodd" class="shp21" d="M414.52 253.01c-.79 0-1.44-.74-1.44-1.64 0-.9.65-1.64 1.44-1.64.8 0 1.45.74 1.45 1.64 0 .9-.65 1.64-1.45 1.64zm0-2.8c-.53 0-.96.52-.96 1.16 0 .64.43 1.16.96 1.16.54 0 .97-.52.97-1.16 0-.64-.43-1.16-.97-1.16z"/></g><g id="g190"><path id="path192" d="M421.45 255.99l-14.41.13-7.09-16.68 14.41-.13 7.09 16.68z" fill="#d35b31"/></g><g id="g194"><path id="path196" class="shp23" d="M419.57 248.45l-1.06-1.3s-.71-.64-1.23-.75c-.52-.1-1.62-.74-1.72-.56-.11.18.84 1.45.84 1.45l.04.01c-1.08.82-3.83.09-4.17.43-.41.4.57 1.28 1.09 1.77.52.49 2.02 1.31 3.19.95.86-.27 2.2-.54 2.2-.54l.82-1.46"/></g><g id="g198"><path id="path200" class="shp23" d="M401.03 242.38s.91-1.03 1.48-.54c.58.5-.15 2.93-.7 2.68-.54-.25-1.09-1.84-.78-2.14"/></g><g id="g202"><path id="path204" class="shp7" d="M425.29 227.51s4.81.34 6.65 4.82c1.84 4.48 5.23 11.85 4.5 14.94-.29 1.24-3.79 5.5-18.39 2.79 0 0 .12-1.53 1.1-2.24 0 0 10.29-3.31 10.27-3.97-.03-1.24-1.39-2.31-7.13-8.06-1.57-1.57 3-8.28 3-8.28"/></g><g id="g206"><path id="path208" class="shp23" d="M422.12 227.73c.14-.19-.04-.8-.27-1.93-.21-1.02-.55-2.6-.55-4.38l-.3.05-5.11.86s.11 1.37.12 2.66v.03c0 1.12-.3 2.81.07 3.03 1.94 1.14 5.49.41 6.04-.32"/></g><g id="g210"><path id="path212" class="shp24" d="M415.89 222.33s.1 1.93.1 3.22c2.86-.07 4.39-2.85 5.01-4.08l-5.11.86z"/></g><g id="g214"><path id="path216" class="shp23" d="M415.58 224.63s6.7-.95 6.04-5.12c-.66-4.17-.24-7.1-4.54-6.67-4.31.44-4.89 2.16-5.01 3.6-.12 1.45 1.74 8.33 3.51 8.19"/></g><g id="g218"><path id="path220" class="shp17" d="M414.01 213.23s2.61 4.59 5.54 4.87c2.92.27 4.02-.67 4.02-.67s-2.42-1.37-3.35-4.29c0 0-5.19-2.46-6.21.09"/></g><g id="g222"><path id="path224" class="shp17" d="M414.53 213.55s-1.27.73-1.68 1.81c-.39 1.05-.65 2.41-.29 3.96 0 0-1.91-3.1-.66-5.22 1.33-2.26 2.63-.55 2.63-.55z"/></g><path id="path226" class="shp25" d="M149.54 255.18l-.77.12-1.46-9.08.77-.12 1.46 9.08"/><path id="path228" class="shp26" d="M147.44 244.56l-.13 1.66.77-.12-.64-1.54z"/><path id="path230" class="shp25" d="M154.74 256.05l-.76-.14 1.68-9.04.76.14-1.68 9.04z"/><path id="path232" class="shp26" d="M156.34 245.34l-.68 1.53.76.14-.08-1.67z"/><path id="path234" class="shp25" d="M153.77 253.4l-.76-.14 1.67-9.05.77.15-1.68 9.04z"/><path id="path236" class="shp26" d="M155.36 242.69l-.68 1.52.77.15-.09-1.67z"/><path id="path238" class="shp20" d="M156.34 258.79h-6.14v-8.86h6.14v8.86z"/><path id="path240" class="shp6" d="M153.27 258.79h-6.15v-8.86h6.15v8.86z"/><g id="g242"><path id="path244" class="shp27" d="M496.21 177.32s3.58-12.29 14.64-19.1c0 0 17.06.42 27.55 8.54 0 0-13.89 18.51-12.54 30.23 0 0-22.91-5.22-29.65-19.67z"/></g><g id="g246"><path id="path248" class="shp28" d="M538.4 166.76s.02 11.86-3.8 19.71c-3.82 7.85-8.74 10.52-8.74 10.52.02-.07-.91-21.44 12.54-30.23"/></g><g id="g250"><path id="path252" class="shp4" d="M494.17 166.66s.51-15.2 4.38-21.78c3.86-6.58 15.92 8.01 15.92 8.01l-13.57 11.07-6.73 2.7"/></g><g id="g254"><path id="path256" d="M411.33 187.6s-10.22-.48-11.6-1.34c-1.39-.87-4.49-1.4-5.57-2.48-1.09-1.09-2.56-2.24-3.16-1.16-.77 1.37 1.32 5.47 2.29 6.12.97.65 4.04 1.99 5.43 3.5 1.39 1.51 3.03 1.26 4.12.2 1.1-1.07 10.6-2.79 10.6-2.79l-2.11-2.05z" fill="#f9ddbf"/></g><g id="g258"><path id="path260" class="shp10" d="M472.52 180.62c-1.12-1.19-20.82-11.19-28.58-11.03-8.55.18-33.14 16.04-33.14 16.04l9.64-.47s22.03-5.08 24.11-4.33c6.36 2.33 24.39 18.42 34.17 15.64 10.6-3.01 11.06-10.46 11.06-10.46l-17.26-5.39"/></g><g id="g262"><path id="path264" class="shp4" d="M505.68 189.55c-.25.29-.5.58-.77.86-1.3 1.39-2.78 2.6-4.36 3.64-8.15 5.44-18.66 6.55-18.66 6.55-12.12-4.87-10.42-23.46-10.42-23.46 16.3-.18 28.8-18.92 28.8-18.92s9.76 5.07 14.37 12.01c2.47 3.71 1.7 13.21 1.28 15.29-.78 3.91-4.84-2.41-10.24 4.03"/></g><g id="g266"><path id="path268" class="shp23" d="M511.16 161.96c-.4 1.17-.62 2.23-.72 3.18a3.564 3.564 0 01-2.76 3.06c-1.33.3-2.33.29-3.06.15-1.02-.2-1.7-1.19-1.5-2.22.1-.49.19-.94.21-1.01.05-.15.09-.29.13-.42.46-1.52.67-2.38.67-2.38h.01c.17-.01 4.06-.32 5.98-.39.64-.03 1.06-.02 1.04.03"/></g><g id="g270"><path id="path272" class="shp30" d="M503.91 163.13c2.61 1.17 5.54.25 5.54.25-.25-.28.96-1.26.66-1.45-1.91.07-5.36-.05-5.53-.04-.01 0-.5.34-.5.34s-.08.37-.17.9"/></g><g id="g274"><path id="path276" class="shp23" d="M503.05 161.88s1.04.63 2.44 1.1c2.04.7 4.82 1.08 6.19-1.28 2.3-3.98 4.67-6.17.73-8.76-2.11-1.39-3.57-1.73-4.64-1.57-.92.13-1.56.65-2.07 1.18-1.08 1.14-4.24 8.24-2.65 9.33"/></g><g id="g278"><path id="path280" class="shp10" d="M505.87 149.79c-1.52 1.42-.59 3.95 1.48 4.02.81.03 1.47.06 1.8.3.97.68.81 2.51.71 3.08-.09.57-.11 1.07 1.4 1.02.25-.01.42.04.53.13.47.43-.36 1.72-.76 2.23-.12.14-.2.3-.26.47-.12.4-.25 1.1.17 1.6.08.09 1.4 1.02 5.96-3.65.72-.73 1.62-2.52 1.14-4.51-.49-2-3.86-4.78-6.9-5.79-3.26-1.08-5.09.93-5.27 1.1"/></g><g id="g282"><path id="path284" class="shp7" d="M471.79 183.95s-20.26-4.77-31.51-4.65c-7.67.09-26.67 4.96-36.17 7.31 0 0-.25 1.14.14 2.96.46 2.21 2.13 2.46 2.13 2.46s20.29-.89 29.38-.88c9.09.02 23.26 11.61 47.93 5.56l-11.9-12.76"/></g><g id="g286"><path id="path288" class="shp23" d="M495.17 179.84s-3.78-.9-5.22-.46c-1.43.45-3.5 2.56-3.18 2.66 2.91.92 3.43-.59 4.4-.29.97.3 1.62.41 2.87.01 1.24-.4 2.5.02 2.5.02l.73-1.37-2.1-.57"/></g><g id="g290"><path id="path292" class="shp23" d="M489.83 179.43s-2.55.26-2.47.51c.08.24 1.49.36 1.49.36l.98-.87z"/></g><g id="g294"><path id="path296" class="shp5" d="M504.91 190.41c-1.3 1.39-2.78 2.6-4.35 3.64-4.14-3.05-6.51-10.67-6.55-10.8l10.9 7.16"/></g><g id="g298"><path id="path300" class="shp4" d="M516.04 175.37s1.83 14.1-4.32 19.44c-6.14 5.35-17.71-11.56-17.71-11.56s-1.34-1.51 2.55-3.44l10.76 4.69c1.64-.42.47-7.01 8.72-9.13"/></g><g id="g302"><path id="path304" class="shp5" d="M499.21 180.96s6.01 3.8 7.75 2.94c1.74-.87.52-5.25.52-5.25s.4 5.84-8.27 2.31"/></g><g id="g306"><path id="path308" class="shp4" d="M481.89 200.6s-10.9-3.57-13.07-19.39c0 0 5.28 1.72 11.39 1.77l10.12 8.51-8.44 9.11z"/></g><g id="g310"><path id="path312" class="shp28" d="M480.21 182.98l13.03 1.31.01-.12c.07-.63-.39-1.19-1.03-1.25l-11.89-1.19-.12 1.25"/></g><g id="g314"><path id="path316" class="shp28" d="M481.96 165.82l-20.15-2.01 3.12 17.65 20.28 2.02-3.25-17.66"/></g><g id="g318"><path id="path320" class="shp27" d="M461.51 163.77l3.12 17.66 20.29 2.02-3.26-17.66-20.15-2.02z"/></g><g id="g322"><path id="path324" class="shp21" d="M471.53 173.29c.06.67.55 1.25 1.1 1.31.54.05.93-.45.87-1.12-.06-.67-.55-1.25-1.09-1.31-.54-.05-.93.45-.88 1.12z"/></g><g id="g326"><path id="path328" class="shp23" d="M371.41 308.25l-.99 4.16-1.31 5.51h-4.09l-.24-5.28-.19-4.07 6.82-.32"/></g><g id="g330"><path id="path332" class="shp31" d="M384.38 217.83s3.24-3.47 5.34-.75c2.11 2.72 4.44 4.55 7.68 6.64 3.23 2.09-2.86 18.48-6.91 18.15-4.04-.34-20.56-13.26-6.11-24.04z"/></g><g id="g334"><path id="path336" class="shp20" d="M368.25 216.18c.81-.61 8.26-3.16 15.51-.65 7.26 2.52-5.62 9.52-5.62 9.52l-4.17.18-5.72-9.05"/></g><g id="g338"><path id="path340" class="shp10" d="M363.41 323.97s0-2.01.28-2.67c.29-.67 1.33-3.38 1.33-3.38h4.1s.76 2.47.8 3.28c.05.81 0 2.77 0 2.77h-6.51z"/></g><g id="g342"><path id="path344" class="shp10" d="M389.39 323.97s0-2.01-.28-2.67c-.29-.67-1.33-3.38-1.33-3.38h-4.1s-.76 2.47-.81 3.28c-.05.81 0 2.77 0 2.77h6.52z"/></g><g id="g346"><path id="path348" class="shp23" d="M373 211.44s-.15 4.47-.72 6.47l-4.52 9.74 17.01-4.04-4.05-5.61s-1.23-5.99-.59-8.2c.65-2.22-7.13 1.64-7.13 1.64"/></g><g id="g350"><path id="path352" class="shp32" d="M372.97 212.06s1.34 3.24 3.88 3.17c2.53-.07 3.11-2.94 3.11-2.94l-6.99-.23z"/></g><g id="g354"><path id="path356" class="shp33" d="M371.46 209.44s-.82-4.09-1.39-5.33c-.58-1.24-1.05-6.76 5.28-7.05 0 0 2.43.29 3.76-.52 0 0 0 .81-.34 1.09 0 0 2.19-.52 3.91 1.38 1.71 1.91-1.14 8.58-1 10.15l-10.22.28z"/></g><g id="g358"><path id="path360" class="shp23" d="M376.56 213.98c-1.84-.04-5.22-2.48-5.22-5.51v-4.73c0-1.11.77-2.01 1.72-2.01h7c.94 0 1.72.9 1.72 2.01v4.46c0 3.18-3.11 5.81-5.22 5.78z"/></g><g id="g362"><path id="path364" class="shp33" d="M371.34 206.26s.01-2.84 2.26-3.27c2.25-.44 7.28 1.38 8-.69.71-2.07-9.73-2.04-10.26-.71-.52 1.32 0 4.67 0 4.67"/></g><g id="g366"><path id="path368" class="shp7" d="M379.19 255.49c1.12-3.51 1.1 14.52-3.43 34.8-.68 3.1-2.23 10.56-3.34 17.78h-9.26c-.13-5.83-.76-13.97-1.15-20.07-1.23-19.12 1.91-33.46 1.91-33.46l15.27.95"/></g><g id="g370"><path id="path372" class="shp7" d="M391.07 288c-.1 5.85-1.29 13.61-1.39 19.3h-9.4c-.63-4.13-1.64-8.39-2.36-11.82-.51-2.43-.88-4.46-.88-5.73.02-2.48-1.55-9.64-2.49-15.95v-.03c-.04-.24-.07-.48-.11-.72-1.25-8.87-.81-17.56-.81-17.56l15.86-.99s1.85 17.91 1.58 33.5"/></g><g id="g374"><path id="path376" class="shp10" d="M362.66 261.89s3.57 4.33 13.26 3.7c9.7-.62 14.32-2.31 14.32-2.31l-27.58-1.39z"/></g><g id="g378"><path id="path380" class="shp6" d="M390.24 263.28c-3.17.43-24.71 1.55-27.58-1.39-2.87-2.94 4.69-43.04 4.69-43.04s.85-.25 2.3-.52c.73-.14 1.62-.29 2.63-.41.01.32.26 5.04 4.18 7 0 0 4.71-1.89 4.25-6.92a.88.88 0 00-.02-.17c.63.06 1.27.15 1.91.26 1.29.22 2.6.54 3.9.97 0 0 6.91 43.79 3.74 44.22"/></g><g id="g382"><path id="path384" class="shp6" d="M362.84 242.58c-.12.16.73 1.4 1.95 2.98 2.49 3.26 6.48 8 6.48 8-.06 1.61-.28 2.65-.28 2.65-5.48-2.59-9.18-5.01-11.64-6.96-3.45-2.73-4.44-4.52-4.44-4.52 5.54-23.43 12.64-25.86 12.64-25.86l2.31 14.11s-6.63 9.09-7.02 9.6"/></g><g id="g386"><path id="path388" class="shp21" d="M382.6 218.09l-1.43 4.34-1.9 2.8-2.73 1.48-2.57-1.48-4.32-6.9c.74-.14 1.62-.29 2.63-.41.01.15.07.86.54 1.77 1.56 3.01 5.96 3.04 7.5.01.26-.51.42-1.09.4-1.7-.01-.06-.01-.12-.02-.17.62.06 1.26.15 1.9.26"/></g><g id="g390"><path id="path392" class="shp23" d="M371.27 253.57c0 .04-.01.09-.01.13-.01.3-.03.57-.05.83-.14.19-.29.37-.45.53-.26.26-.53.47-.81.65-.14-.06-.27-.13-.41-.2-4.69-2.33-7.95-4.49-10.19-6.26 1.42-.43 3.41-1.43 5.44-3.69 2.49 3.26 6.48 8.01 6.48 8.01"/></g><g id="g394"><path id="path396" class="shp6" d="M398.46 243.86s-.95 1.82-4.35 4.62c-2.42 1.99-6.07 4.48-11.5 7.17 0 0-.24-1.03-.32-2.63 0 0 3.89-4.82 6.32-8.13 1.18-1.61 2.02-2.86 1.88-3.02-.3-.39-4.46-5.86-6.32-8.3-.53-.71-.88-1.16-.88-1.16l2.35-13.88s6.84 2.02 12.82 25.33"/></g><g id="g398"><path id="path400" class="shp23" d="M394.11 248.48c-2.2 1.81-5.44 4.05-10.11 6.47-.12.06-.23.12-.35.18-.6-.72-.96-1.58-1.18-2.34.08-.1.18-.23.3-.38 1.12-1.4 3.93-4.92 5.84-7.52 2.07 2.22 4.08 3.18 5.5 3.59z"/></g><g id="g402"><path id="path404" class="shp23" d="M380.7 217.83c-3.15-.34-6.1-.19-8.42.09v-.01s7.79-4.82 8.42-.08z"/></g><g id="g406"><path id="path408" class="shp20" d="M372.88 231.46h-.15l-.12-7.52h.4l-.13 7.52z"/></g><g id="g410"><path id="path412" class="shp20" d="M372.71 231.26c-.15.22-.47.95-.26 1.03.22.07.6.08.7-.03.11-.1-.17-1.41-.44-1"/></g><g id="g414"><path id="path416" class="shp20" d="M380.26 231.46h-.16l-.12-7.51h.4l-.12 7.51z"/></g><g id="g418"><path id="path420" class="shp20" d="M380.08 231.26c-.14.22-.47.95-.26 1.03.22.07.6.08.7-.03.11-.1-.17-1.41-.44-1z"/></g><g id="g422"><path id="path424" class="shp20" d="M373.97 225.23l-6.62-6.38s-1.49-1.06.86-2.64c2.36-1.59 5.76 9.02 5.76 9.02"/></g><g id="g426"><path id="path428" class="shp20" d="M379.27 225.23l6.62-6.38s1.49-1.06-.86-2.65c-2.36-1.58-5.76 9.03-5.76 9.03z"/></g><g id="g430"><path id="path432" class="shp20" d="M387.58 256.31c-1.29.11-2.37-.22-3.2-.96-.14-.12-.26-.26-.38-.4-.66-.76-1.03-1.73-1.23-2.54a8.23 8.23 0 01-.26-1.67l-.01-.19h-10.69v.2c.05 1.15-.14 2.14-.55 2.95-.2.41-.46.77-.78 1.09-.29.29-.61.53-.94.72-1.43.83-3.02.8-3.05.8l-.19-.01v4.52h21.49v-4.53l-.21.02"/></g><g id="g434"><path id="path436" class="shp20" d="M390.49 241.87s-5.96-7.83-1.24-10.11c1.87-.9 4.51 9.84 3.1 10.85-1.42 1.01-3.74 2.28-3.74 2.28l1.88-3.02"/></g><g id="g438"><path id="path440" class="shp20" d="M363.53 240.57s2.07-9.82.25-8.81c-1.81 1.01-4.51 9.84-3.09 10.85 1.41 1.01 3.74 2.28 3.74 2.28l-.9-4.32z"/></g><g id="g442"><path id="path444" class="shp31" d="M389.66 241.84c-2.72-3.38-3.74-8.87-3.6-14.53.1-4.26.69-8.1.73-8.23l2.23 1.74c-.01.03-1.28 2.36-1.38 6.5-.09 3.78-.27 6.66 1.87 13.25l.15 1.27"/></g><g id="g446"><path id="path448" class="shp10" d="M368.99 310.16h-4.8c-.42.05-1.09-.57-1.09-1.46 0 0-.01-2.13-.14-2.51-.62-1.66.29-1.75 1.18-1.75h8.75c.89 0-.47 2.74-.47 3.63l.32 1.17c0 .89-2.86.92-3.75.92"/></g><g id="g450"><path id="path452" class="shp21" d="M370.43 312.41l-1.31 5.51h-4.1l-.24-5.28c.61.22 2.66.79 5.65-.23"/></g><g id="g454"><path id="path456" class="shp23" d="M381.39 308.25l.99 4.16 1.31 5.51h4.09l.24-5.28.2-4.07-6.83-.32z"/></g><g id="g458"><path id="path460" class="shp10" d="M383.81 310.17l4.8-.01c.42.05 1.09-.57 1.09-1.46 0 0 .01-2.13.15-2.51.62-1.66-.3-1.75-1.19-1.75h-8.75c-.89 0 .47 2.74.47 3.63l-.31 1.17c0 .89 2.86.93 3.74.93"/></g><g id="g462"><path id="path464" class="shp21" d="M382.38 312.41l1.31 5.51h4.09l.25-5.28c-.61.22-2.67.79-5.65-.23z"/></g><g id="g466"><path id="path468" class="shp21" d="M374.82 210.68s.63.86 1.74.83c1.11-.03 1.63-.83 1.63-.83s-1.87-.31-3.37 0"/></g><path id="path470" class="shp23" d="M112.36 234.86s-.21 9.74.27 12.58c.47 2.84-.63 16.06-.63 16.06l-2.28-.29s-5.7-21.59-5.12-24.36c.58-2.77 7.76-3.99 7.76-3.99"/><path id="path472" class="shp23" d="M112 263.5s.88 2.95.67 3.51c-.21.57-1.33 1.75-2.25 2.47-.93.72-.11-1.89.06-2.74.18-.85-1.18-.91-.97-2.22l.21-1.31 2.28.29z"/><path id="path474" class="shp23" d="M109.51 264.52s.01 2.45-.02 2.93.48.05.55-.38c.07-.43.51-1.14.73-1.2.21-.06-1.26-1.35-1.26-1.35"/><path id="path476" class="shp10" d="M95.55 301.04c.82 8.25 3.78 20.94 3.78 20.94l2.3-1.66s4.05-28.47 4.72-30.78c4.59-16.08 5.12-31.89 5.12-31.89l-13.45-3.97c-1.38 2.31-2.44 6.1-2.12 10.39 1.42 18.73-1.33 27.08-.35 36.97"/><path id="path478" class="shp23" d="M81.96 263.9s-.05.92-.75 1.82c-.16.2-.62.73-.79.54-.17-.19.48-1.62.09-2.51-.13-.31 1.45.15 1.45.15z"/><path id="path480" d="M109.17 322.8a.907.907 0 00-.6-.56c-.69-.2-2.05-.37-3.29-1.5-.7-.63-3.37-2.32-3.37-2.32h-.01c-.06 0-.34.09-1.56 1.11-.63.53-1.7-.75-1.7-.75s-.2.17-.35.48c-.12.25-.21.58-.14 1 .1.58-.21 1.67-.46 2.4-.15.45-.28.76-.28.76s-.07.37 1.24.53h1.52c.52-.08.89-.23 1.42-.29.79-.11 1.16.22 1.23.29l.02.02h6.48c.16-.23.01-.78-.15-1.17" fill="#37598c"/><path id="path482" class="shp7" d="M88 300.42c.82 8.26 3.61 21.21 3.61 21.21l2.03.66s4.5-31.05 5.16-33.37c4.6-16.08 5.31-35.18 5.31-35.18l-13.64-.68c-1.37 2.31-2.43 6.11-2.11 10.4 1.41 18.73-1.34 27.07-.36 36.96z"/><path id="path484" d="M101.49 322.8a.944.944 0 00-.61-.56c-.69-.2-2.04-.37-3.28-1.5-.7-.63-3.37-2.32-3.37-2.32h-.02c-.06 0-.34.09-1.55 1.11-.63.53-1.65-.78-1.65-.78s-.25.2-.41.51c-.12.25-.2.58-.13 1 .09.58-.22 1.67-.47 2.4-.15.45-.28.76-.28.76s-.07.37 1.24.53h1.53c.51-.08.89-.23 1.41-.29.8-.11 1.16.22 1.24.29.01.01.01.02.01.02h6.49c.16-.23 0-.78-.15-1.17" fill="#466aa5"/><path id="path486" class="shp36" d="M56.96 320.74c.52 1.18-.04 2.54-1.25 3.04s-2.62-.04-3.13-1.22c-.52-1.18.04-2.54 1.25-3.04 1.21-.51 2.61.04 3.13 1.22z"/><path id="path488" class="shp36" d="M74.07 320.74c.52 1.17-.04 2.54-1.26 3.04-1.21.5-2.61-.04-3.13-1.22-.51-1.18.05-2.54 1.26-3.04 1.21-.51 2.61.04 3.13 1.22z"/><path id="path490" class="shp37" d="M52.03 320.45l3.39 1.18c.34.12.71.18 1.07.18l19.24-.19 2.1-3.39-25.8 2.22"/><path id="path492" class="shp37" d="M62.96 283.06l5.37-12.99.01-.02c.03-.12.87-2.91 5.71-3.53l.03-.01 3.98-.73c.51-.13 2-.35 2.68.21.3.25.43.63.38 1.19-.1 1.08-3.68 9.5-6.06 14.9l.76.32c.61-1.39 5.98-13.59 6.12-15.15.08-.82-.15-1.45-.66-1.88-1.12-.91-3.2-.43-3.42-.37l-3.93.72c-5.21.67-6.28 3.74-6.38 4.09l-5.36 12.95.77.3"/><path id="path494" class="shp37" d="M73.27 279.21l10.39 2.02s3.02 1.2 2.42 6.36c-.52 4.53-2.84 30-2.84 30s-.49 5.3-12.13 3.76l2.16-42.14"/><path id="path496" class="shp6" d="M79.03 286.22l-2.79 28.52a6.36 6.36 0 01-1.19 3.1c-1.19 1.65-3.16 2.72-5.37 2.73l-9.63.06h-.24l-6.03.03c-.61.01-1.2-.07-1.75-.21-.13-.03-.26-.07-.39-.11-2.08-.67-3.69-2.32-4.29-4.36-.25-.86-.32-1.79-.17-2.75l4.38-27.29c.46-2.9 2.9-5.14 5.92-5.42l1.7-.16.4-.03.35-.03 5.68-.53.7-.07 5.49-.51c.86-.08 1.69 0 2.47.22.05.02.1.03.15.05l.32.1c2.7.98 4.58 3.64 4.29 6.66"/><path id="path498" d="M75.05 317.84c-1.19 1.65-3.16 2.72-5.37 2.73l-9.63.06h-.24l-6.03.03c-.61.01-1.2-.07-1.75-.21-.13-.03-.26-.07-.39-.11-2.08-.67-4.49-3.13-4.53-5.74 0 0 20.38-.25 24.64.38 2.19.33 2.85 1.83 3.3 2.86z" fill="#ef8a3f"/><path id="path500" class="shp37" d="M59.93 280.3c-.05.02-4.51 2.67-5.1 4.99-.6 2.39-4.64 30.23-4.68 30.51 0 .03-.11 2.72 2.18 4.72l-.3-.07c-.13-.03-.26-.07-.39-.11-2.15-2.08-1.86-4.48-1.85-4.58.17-1.15 4.08-28.15 4.69-30.55.53-2.11 3.68-4.21 4.7-4.85l.4-.03.35-.03"/><path id="path502" class="shp37" d="M66.31 279.7c-.64.42-3.1 2.24-3.62 5.58-.61 3.92-3.01 32.42-3.03 32.71l-.01.02v.02c-.01.01-.35 1.55.64 2.59l-.24.01h-.24c-.95-1.12-.57-2.5-.52-2.69.08-.88 2.43-28.82 3.04-32.71.45-2.88 2.28-4.68 3.28-5.46l.7-.07"/><path id="path504" class="shp37" d="M74.74 279.56c-.02.01-.95.52-1.75 1.41-.8.88-1.67 2.24-1.97 4.15-.61 3.92-2.51 32.32-2.53 32.61v.02l-.01.02c0 .02-.09 1.76.9 2.8h-.61c-.75-.95-.71-2.68-.64-2.88.06-.91 1.92-28.73 2.53-32.62.58-3.66 3.08-5.34 3.61-5.66.05.02.1.03.15.05l.32.1"/><path id="path506" class="shp39" d="M111.65 260.41c-1.18 1.39-11.55 1.12-13.89.6-1.6-.36-2.84-2.05-3.72-5.06-.29 2.1-.95 4.57-2.42 4.73-2.41.25-3.41-.17-3.7-1.09-.04-.14.45-6.51.87-12.91.29-4.41.56-8.84.59-11.27.01-.3.01-.57 0-.81-3.81-.21-5.32-.04-5.32-.04s1.82-5.89 6-10.67c3.86-4.42 13.06-3.11 16.79-2 2.35.69 4.57 3.22 3.43 8.57-.68 3.15.28 8.2.67 15.65.37 7.15.96 14 .7 14.3"/><path id="path508" class="shp39" d="M108.79 222.94s2.88 2.35 4.54 12.98c0 0-.93 1.28-3.69.94-2.76-.35-.85-13.92-.85-13.92z"/><path id="path510" class="shp10" d="M105.59 204.44s-6.69-7.59-9.98-2.52c0 0-2.52 1.13-3.32 5.51-.82 4.46 2.22 7.76 3.72 6.88.97-.56 1.76 1.13 1.76 1.13l7.82-11z"/><path id="path512" class="shp10" d="M96.3 201.11s-.97-3.46-6.05-2.23c0 0 2.44-.37 3.14.55 0 0-1.97-.83-3.16-.06-1.19.78-1.32 3.29-1.12 4.05.2.75 1.61 2.98 2.49 2.96.89-.03 1.92-.84 1.92-.84l2.78-4.43"/><path id="path514" class="shp23" d="M97.28 220.73c-.14-.76.62-2.08.49-6.29l.32.05 5.51.93s.12 4.48.17 6.1c.03 1.36-6.59.41-6.49-.79"/><path id="path516" class="shp24" d="M103.6 215.42s.04 1.63.09 3.25c-3.07 0-4.89-2.65-5.6-4.18l5.51.93"/><path id="path518" class="shp10" d="M97.51 213.91s-1.68-2.49-2.12-4.65c-.32-1.54.31-7.31 6.1-6.64 0 0 1.68.12 3.28 1.14 1.28.81 3.14 2.58 1.26 7.65l-.48 1.71-8.04.79"/><path id="path520" class="shp23" d="M104.66 216.93s-7.24.32-7.37-4.19c-.13-4.52-1.16-7.52 3.46-7.92 4.62-.39 5.57 1.3 5.98 2.8.41 1.5-.19 9.11-2.07 9.31"/><path id="path522" class="shp10" d="M104.05 204.62s-1.84 5.35-4.86 6.22c-3.02.87-4.37.09-4.37.09s2.29-1.92 2.68-5.17c0 0 4.98-3.62 6.55-1.14"/><path id="path524" class="shp10" d="M103.57 205.06s1.51 1.15 1.91 2.29c.39 1.14.62 3.5 1.31 3.4 0 0 1.39-3.64-.34-5.63-1.85-2.11-2.88-.06-2.88-.06"/><path id="path526" class="shp10" d="M103.85 205.24s-1.26 5.58-5.05 7.47c0 0 3.75-3.52 3.97-7.19.22-3.67 1.08-.28 1.08-.28"/><path id="path528" class="shp23" d="M80.27 260.08s-1.81 2.11-2 3.21c-.2 1.1-.1 4.03.46 4.13.59.11.95-1.92 1.14-2.32.64-1.35 1.92-.71 2.09-1.2.17-.48.33-2.8.33-2.8l-2.02-1.02z"/><path id="path530" class="shp23" d="M86.4 231.11s-4.89 9.55-5.17 13.55c-.28 4-.96 15.42-.96 15.42l2.02 1.02s4.2-15.06 4.46-17.34c.28-2.54 8.58-10.97 8.58-10.97l-8.93-1.68"/><path id="path532" class="shp39" d="M95.11 227.44H87.8l-3.74 7.11s5.96 4.93 11.89 2.93c5.93-2-.84-10.04-.84-10.04"/><path id="path534" class="shp40" d="M237.31 265.7H121.34v-6.91h115.97v6.91z"/><path id="path536" d="M121.34 275.06v1.25c0 .43.14.79.31.79h45.65c.17 0 .31-.36.31-.79v-1.25c0-.44-.14-.8-.31-.8h-45.65c-.17 0-.31.36-.31.8z" fill="#8fadef"/><path id="path538" d="M121.34 275.06v1.25c0 .43.13.79.28.79h36.24c.16 0 .29-.36.29-.79v-1.25c0-.44-.13-.8-.29-.8h-36.24c-.15 0-.28.36-.28.8" fill="#bbd0ff"/><path id="path540" class="shp2" d="M132.89 324.36h32.4V277.1h-32.4v47.26z"/><path id="path542" d="M123.81 324.36h32.4V277.1h-32.4v47.26z" fill="#d2e0ff"/><path id="path544" fill-rule="evenodd" class="shp2" d="M125.55 278.44h28.92v43.31h-28.92v-43.31zm28.61.31h-28.3v42.69h28.3v-42.69z"/><path id="path546" class="shp2" d="M125.7 293.08h28.62v-.31H125.7v.31z"/><path id="path548" class="shp2" d="M125.7 307.69h28.62v-.31H125.7v.31z"/><path id="path550" class="shp2" d="M137.08 281.23h5.31c.25 0 .47-.21.47-.47s-.22-.46-.47-.46h-5.31c-.26 0-.47.2-.47.46s.21.47.47.47z"/><path id="path552" class="shp2" d="M137.08 295.52h5.31c.25 0 .47-.21.47-.47s-.22-.47-.47-.47h-5.31a.47.47 0 100 .94z"/><path id="path554" class="shp2" d="M137.08 310.41h5.31c.25 0 .47-.21.47-.47s-.22-.47-.47-.47h-5.31a.47.47 0 100 .94z"/><path id="path556" class="shp40" d="M139.73 274.72H133v-9.02h6.73v9.02z"/><path id="path558" class="shp2" d="M228.03 323.92h5.9v-58.4h-5.9v58.4z"/><path id="path560" class="shp5" d="M224.9 283.98v-29.51c0-5.19-3.8-9.4-8.48-9.4h-19.19c-4.69 0-8.49 4.21-8.49 9.4v29.51h36.16"/><path id="path562" class="shp4" d="M222.87 283.98v-29.51c0-5.19-3.8-9.4-8.49-9.4h-19.19c-4.69 0-8.49 4.21-8.49 9.4v29.51h36.17z"/><path id="path564" class="shp5" d="M181.05 288.64h41.03c1.56 0 2.82-1.26 2.82-2.82v-1.84h-43.85v4.66"/><path id="path566" class="shp2" d="M176.13 288.64h31.05c1.15 0 2.08-.93 2.08-2.09v-.48c0-1.15-.93-2.09-2.08-2.09h-31.05c-1.15 0-2.08.94-2.08 2.09v.48c0 1.16.93 2.09 2.08 2.09z"/><path id="path568" class="shp44" d="M201.98 322.34h2.64l.75-33.7h-4.05l.66 33.7"/><path id="path570" class="shp44" d="M190.47 322.34h25.74v-2.32l-13.11-1.19-12.63 1.19v2.32z"/><path id="path572" class="shp44" d="M218.72 321.98a2.121 2.121 0 00-4.24 0c0 1.17.95 2.11 2.12 2.11 1.17 0 2.12-.94 2.12-2.11z"/><path id="path574" class="shp44" d="M192.97 321.98c0-1.17-.94-2.12-2.11-2.12s-2.12.95-2.12 2.12c0 1.17.95 2.11 2.12 2.11 1.17 0 2.11-.94 2.11-2.11z"/><path id="path576" class="shp44" d="M191.4 290.85h23.89c1.22 0 2.21-.99 2.21-2.21h-28.31c0 1.22.99 2.21 2.21 2.21z"/><path id="path578" class="shp23" d="M188.62 308.96c.31.35.35.75.2 1.17v.01c-.29.78-1.22 1.65-2.3 2.52-.14.11-.26.21-.37.31a.5.5 0 00-.08.07c-.02.02-.04.04-.06.05-1.01.94-.63 1.15-2.45 3.04-2.07 2.15-3.49 2.19-3.89 1.99-.35-.16.35-1.3 1.12-2.59.04-.06.07-.12.11-.18.11-.18.21-.35.31-.52.9-1.54.67-2.27.46-4.57-.18-1.86-2.91-10.43-2.91-10.43l3.97-.68s1.19 6.82 2.5 7.87c.71.56 1.49.57 2.17.98.05.03.09.06.14.09.38.25.78.52 1.08.87"/><path id="path580" class="shp10" d="M188.62 308.96c.31.35.35.75.2 1.17v.01c-.35.78-1.26 1.64-2.3 2.51-.14.11-.26.22-.37.32a.5.5 0 00-.08.07c-.02.02-.04.04-.06.05-1.01.94-.63 1.15-2.45 3.04-2.07 2.15-3.49 2.19-3.89 1.99-.35-.16.35-1.3 1.12-2.59.4-.14 2.27-.91 3.69-2.71 1.24-1.59 2.07-3.64 2.92-4.82.05.03.09.06.14.09.38.25.78.52 1.08.87"/><path id="path582" class="shp23" d="M156.67 306.48c-.24 1.23-1.99 1.02-3.93.55-1.95-.48-1.49.09-4.26-.22-2.77-.31-3.61-1.34-3.7-1.75-.07-.37 1.3-.5 2.77-.67l.55-.06c1.66-.21 2.88-1.28 4.38-2.16 1.43-.84 3.56-4.23 3.56-4.23l3.8.3s-1.99 3.03-2.76 4.35c-.46.78-.43 1.8-.38 2.59.03.43.06.87-.03 1.3"/><path id="path584" class="shp10" d="M152.74 307.03c-1.95-.48-1.49.09-4.26-.22-2.77-.31-3.61-1.34-3.7-1.75-.07-.37 1.3-.5 2.77-.67l.01.03s1.66 1.18 3.97 1.24c1.88.04 3.87-.5 5.17-.48.03.43.06.87-.03 1.3-.24 1.23-1.99 1.02-3.93.55"/><path id="path586" class="shp10" d="M171.24 282.16l3.56 9.57 4.64 12.49s1.26.13 2.46-.22c1.11-.32 2.39-1.16 2.39-1.16s-1.29-13.42-3.7-21.12c-.61-1.98-1.3-3.58-2.06-4.47-3.73-4.41-7.29 4.91-7.29 4.91z"/><path id="path588" class="shp7" d="M174.86 266.96c2.33-.75 9.24-.23 15.91 1.08l1.12-1.86 14.41-1.13s4.76 10.55 2.16 17.27c-.39.99-1.15 1.63-2.44 1.65h-.21s-8.58-.01-11.36-.01c-7.17 0-15.17-4.93-16.21-5.13-1.69-.34-2.37 3.05-4.06 6.61-1.69 3.56-15.92 15.76-15.92 15.76s-2.19.02-3.09-.32c-.97-.36-1.33-.84-1.33-.84s15.77-31.38 21.02-33.08"/><path id="path590" class="shp10" d="M191.98 246.33c5.13 2.82 15.54 8.68 15.59 8.64 0 0 3.83 1.45 6 0 3.62-2.4 5.56-8.87-1.06-14.44-3.3-2.77-5.64-3.45-6-7.88-.19-2.41-3.48-10.35-8.94-9.61-.45.06-3.26.19-5.11 1.16-4.7 2.47-8.17 21.03-.48 22.13z"/><path id="path592" class="shp23" d="M196.28 243.92c-.02.01 2.52.88 4.23.13 1.6-.71 2.81-3.35 2.79-3.35-.73-.03-1.53-.67-2.15-4.85l-.31.11-5.21 1.88s.37 1.67.62 3.27c.2 1.34.31 2.62.03 2.81"/><path id="path594" class="shp30" d="M195.63 237.84s.37 1.67.62 3.27c3-.54 4.17-3.53 4.59-5.15l-5.21 1.88z"/><path id="path596" class="shp23" d="M194.85 239.5s7.14-.96 6.47-5.4c-.66-4.44-.19-7.55-4.78-7.13-4.58.43-5.21 2.25-5.35 3.79-.14 1.53 1.78 8.87 3.66 8.74z"/><path id="path598" class="shp10" d="M191.45 228.32s4.57 3.95 7.68 4.26c3.11.32 4.29-.68 4.29-.68s-1.84-1.52-2.94-3.98a2.188 2.188 0 00-1.8-1.29c-2.22-.19-6.43-.28-7.23 1.69"/><path id="path600" class="shp10" d="M194.31 227.97s-1.53 1.48-2.01 2.58c-.47 1.06-.61 3.59-.24 4.59 0 0-2.38-4.63-1.03-6.88 1.43-2.39 3.28-.29 3.28-.29z"/><path id="path602" class="shp45" d="M190.27 254.44c.21 14.46.06 11.44 1.64 12.81.38.33 1.45.53 2.86.62 4.43.3 12.22-.43 12.52-1.25 1.02-2.84.3-3.72 1.15-8.06.09-.46.2-.96.33-1.5.71-2.99 1.4-4-1.12-8.79-2.29-4.34-4.67-7.86-4.88-7.74-6.04 3.59-6.52.58-6.52.58s-6.09 6.28-5.98 13.33"/><path id="path604" class="shp7" d="M174.8 291.73l4.64 12.49s1.26.13 2.46-.22c1.11-.32 2.39-1.16 2.39-1.16s-1.29-13.42-3.7-21.12l-5.79 10.01z"/><path id="path606" class="shp45" d="M196.25 241.11s-6.21 1.05-6.94 3.73c-.73 2.67-5.02 18.4-5.02 18.4s3.15.57 4.61-.89c1.46-1.46 5.08-13.54 5.08-13.54l2.27-7.7"/><path id="path608" d="M194.77 267.87c4.43.3 12.22-.43 12.52-1.25 1.02-2.84.3-3.72 1.15-8.06l-2.14-6.02s.36 6.7-1.62 8.47c-1.97 1.76-8.09 3.4-9.05 4.88-.47.71-.77 1.41-.86 1.98z" fill="#9b3531"/><path id="path610" class="shp23" d="M199.85 265.05s-4.38-.97-5.08-.58c-.71.39-2.43 1.8-2.65 2.29-.21.49 1.57-.37 2.16-.53.37-.1 1.36.24 1.85.41 2.07.69 3.33.33 3.33.33l.39-1.92"/><path id="path612" class="shp45" d="M202.77 240.53s5.88.36 7.91 3.2c2.86 3.99 8.53 21.01 5.28 23.28-3.66 2.55-16.67.67-16.67.67s-.43-2.03.17-3.01 10.39-2.56 10.84-3.01c.45-.45-5.64-8.81-5.64-10.17 0-1.36-1.89-10.96-1.89-10.96z"/><path id="path614" class="shp23" d="M194.56 265.68s-.92 1.19-1.22 1.33c-.3.14-.49.1-.49.1l.61-1.11 1.1-.32z"/><path id="path616" class="shp23" d="M194.77 264.47l-2.66 1.29s.11.19.44.17c.32-.01 1.15-.32 1.15-.32l1.07-1.14"/><path id="path618" class="shp6" d="M194.5 268.35h-21.07l-6.34-15.77h21.04l6.37 15.77z"/><path id="path620" class="shp20" d="M173.18 267.73H201v.62h-27.57l-.25-.62z"/><path id="path622" class="shp21" d="M178.75 260.46c-.16-.55.16-1 .71-1 .55 0 1.13.45 1.29 1 .16.55-.16 1.01-.71 1.01-.56 0-1.14-.46-1.29-1.01z"/><path id="path624" class="shp47" d="M247.52 207.92s-2.39-3.84-6.41-.79c0 0 1.47-.6 2.6-.41 0 0-3.7.44-4.73 4.86-1.03 4.42 5.09 8.9 5.08 10.64-.01 1.74-3.14 4.46-.04 7.71s16.53.06 18.11 3.49c0 0-.45-8.79-5.28-9.29 0 0 2.36.25 3.67 1.68 0 0-1.91-3.29-4.55-2.8-2.34.44-6.08-1.62-6.36-2.29-.27-.66-2.09-12.8-2.09-12.8"/><path id="path626" class="shp23" d="M256.23 227.5s-2.16 4.33-.02 6.49 14.29 5.45 15.53 5.52c2.25.14 11.66-2.07 11.66-2.07l.1-1.69s-9.75-.85-10.84-.65c-1.71.32-14.76-8.33-16.43-7.6"/><path id="path628" class="shp7" d="M271.55 238.06s-.01 0-.01.01c-.37.73-.83 1.25-.83 1.25-2.9 1.13-10.62-2.05-13.4-3.45-.45-.23-.78-.41-.92-.52-1.04-.75-2.23-3.96-2.44-5.52-.2-1.56 2.88-4.53 2.88-4.53s12.75 7.62 14.53 9.46c.99 1.04.66 2.35.19 3.3"/><path id="path630" class="shp10" d="M271.54 238.07c-.37.73-.83 1.25-.83 1.25-2.9 1.13-10.62-2.05-13.4-3.45l-1.26-4.36 5.63.85s5.93 6.42 7.7 6.39c1.66-.02 2.11-.61 2.16-.68"/><path id="path632" class="shp47" d="M255.15 210.21s-6.29-6.86-9.22-2.13c0 0-2.3 1.09-2.96 5.13-.67 4.12 2.19 7.09 3.56 6.26.87-.54 1.63 1.01 1.63 1.01l6.99-10.27z"/><path id="path634" class="shp23" d="M258.56 229.51h-12.14c.03-1.65.24-2.78.72-2.98.62-.3 2.15-2.56 1.68-6.68l5.01-.16s.44 5.09.75 5.19c.68.42 1.58.32 1.58.32s.63 1.84 2.4 4.31"/><path id="path636" class="shp24" d="M254.05 219.69s-.17 2.04 0 3.37c-2.78.45-4.61-1.92-5.48-3.21l5.48-.16z"/><path id="path638" class="shp47" d="M247.9 219.07s-1.59-2.26-2.04-4.24c-.32-1.41.14-6.72 5.48-6.22 0 0 1.55.08 3.05.99 1.19.72 2.93 2.32 1.29 7.01l-.41 1.58-7.37.88"/><path id="path640" class="shp23" d="M254.53 221.72s-6.65.43-6.86-3.72c-.21-4.15-1.2-6.89 3.04-7.35 4.24-.45 5.14 1.1 5.55 2.46.4 1.37 0 8.39-1.73 8.61z"/><path id="path642" class="shp47" d="M253.74 210.4s-1.59 4.96-4.36 5.82c-2.76.86-4.01.16-4.01.16s2.06-1.81 2.36-4.81c0 0 4.52-3.42 6.01-1.17"/><path id="path644" class="shp47" d="M253.31 210.82s1.41 1.02 1.79 2.06c.39 1.05.64 3.22 1.27 3.11 0 0 1.21-3.38-.42-5.18-1.73-1.9-2.64.01-2.64.01z"/><path id="path646" class="shp47" d="M253.56 210.97s-1.05 5.17-4.5 6.97c0 0 3.38-3.3 3.52-6.68.13-3.39.98-.29.98-.29"/><path id="path648" class="shp21" d="M253.11 219.31s.14.49 1.35.35c0 0 1.02-.11.96-.64 0 0-1.01-.34-2.31.29z"/><path id="path650" class="shp6" d="M274.64 320.81l-2.67-.22s-13.5-22.4-12.56-29.52c.19-1.42.08-2.98-.22-4.64-1.21-6.64-5.52-15.02-6.4-23.98-1.11-11.21 12.59-7.24 12.59-7.24s1.03 5.16 2.02 12.27c.81 5.81 1.59 12.92 1.77 19.59.3 11.2 3.1 23.46 5.47 33.74"/><path id="path652" class="shp2" d="M280.11 324.41h-10.44s-.25-1.59.29-2.8c.52-1.16.95-1.75.76-3.16 1.67.56 2.17.48 3.42.19.18.3 1.41 3.03 2.03 3.47.68.5 3.73.32 3.94 2.3"/><path id="path654" class="shp20" d="M267.4 267.48c-1.69 3.84-5.82 13.41-8.21 18.95-1.21-6.64-5.52-15.02-6.4-23.98-1.11-11.21 12.59-7.24 12.59-7.24s1.03 5.16 2.02 12.27z"/><path id="path656" class="shp6" d="M263.73 256.35s-7.16 31.61-9.09 37.38c-3.5 10.47-4.64 16.25-5.45 27.41l-3.06-.42s-3.53-25.22-.71-30.28c2.44-4.36-2.55-28.94 2.66-34.96 5.21-6.03 15.65.87 15.65.87"/><path id="path658" class="shp2" d="M254.97 324.41h-10.44s-.25-1.59.29-2.8c.53-1.16 1.21-1.79 1.02-3.19 1.12.44 2.2.55 3.53.36.19.3 1.05 2.89 1.67 3.33.68.5 3.72.32 3.93 2.3z"/><path id="path660" class="shp7" d="M267.4 261.71c-6.41 5.79-21.68 2.34-22.29-.07-.37-1.5-.65-10.19-.42-14.13.19-3.32-.29-16.97.02-18.67.32-1.7 3.46-3.67 3.46-3.67s2.19 1.29 4.56.83c1.19-.24 1.81-.97 1.72-1.4 0 0 1.7.08 2.39.31 1.76.59 3.97 2.26 6.02 4.08 1.08.95.21 5.47.31 8.93.04 1.56.02 3.12-.03 4.46 0 .11-.01.23-.01.34-.05 1.2-.12 2.2-.19 2.81-.09.75.18 2.16.62 3.84 1.23 4.7 4.98 11.32 3.84 12.34"/><path id="path662" class="shp10" d="M263.56 249.37c-8.51-1.76-14.94-10.62-14.94-10.62l14.51 3.97c-.05 1.2-.12 2.2-.19 2.81-.09.75.18 2.16.62 3.84z"/><path id="path664" class="shp23" d="M249.77 230.03s-3.43 4.37-1.14 7.17c2.28 2.81 16.8 8.78 18.32 9.11 2.78.58 14.83-.06 14.83-.06l.42-1.85s-11.96-2.82-13.35-2.8c-2.17.02-16.89-12.06-19.08-11.57"/><path id="path666" class="shp7" d="M249.15 227.27s-2.59 3.13-2.61 4.9c-.02 1.76.92 5.54 2.08 6.58 1.16 1.04 12.68 7.96 17.09 7.14 0 0 3.47-2.53 1.58-4.92-1.88-2.38-18.14-13.7-18.14-13.7"/><path id="path668" class="shp23" d="M283.5 235.75s1.04-.14 1.25-.46c.21-.33.45-.77 1-.93.55-.16 1.23-.71 1.31-.66.25.14-.81.94-.58 1.02.12.04.6-.41 1.09-.63.51-.22.41-1 .81-.57.16.17.42 1.05.17 1.35-.27.31-.92 1.18-1.21 1.32-.42.2-3.94 1.25-3.94 1.25l.1-1.69"/><path id="path670" fill-rule="evenodd" class="shp10" d="M296.51 238.97h-18.17c-.42 0-.66-.3-.72-.6-.05-.3.08-.67.48-.81l9.57-3.58 9.13 3.47c.42.17.54.56.48.88-.06.32-.32.64-.77.64zm-8.84-4.77l-9.5 3.56c-.3.11-.37.37-.34.57.04.2.19.43.51.43h18.17c.35 0 .52-.25.56-.47a.56.56 0 00-.34-.65l-9.06-3.44z"/><path id="path672" class="shp10" d="M287.78 234.09h-.21v-3.92l.21.03v3.89z"/><path id="path674" class="shp10" d="M286.57 227.95c-.36.16-.62.45-.73.79-.03.08.02.17.11.2.03 0 .05-.01.06-.04.08-.34.33-.65.71-.78a1.11 1.11 0 01.91 2.02l-.06.03.07.2c.03-.01.06-.03.09-.04.68-.38.9-1.28.44-1.93-.36-.51-1.04-.69-1.6-.45"/><path id="path676" class="shp39" d="M279.67 236.92l.64 9.66h2.03l-1.69-10.07-.98.41z"/><path id="path678" class="shp39" d="M294.31 236.4l-2.05 10.18h1.57l1.38-9.82-.9-.36z"/><path id="path680" class="shp39" d="M302.7 290.17c-1.73.16-9.16 2.73-10.27.31-.75-1.61-5.98 2.52-8.18.42-2.21-2.1-4.24-.23-7.65.42-3.42.66-5.6-1.67-5.6-1.67.9-3.46 7.52-24.7 9.4-30.23.39-1.16.75-2.2 1.05-3.07.49-1.43.82-2.39.89-2.6.3-.94-3.84-7.36-2.03-12.3.17-.47 2.03 0 2.03 0s3.46 3.1 5.11 3.05c2.12-.06 4.81-3.05 4.81-3.05s1.31-.29 1.57 0c2.02 2.29-1.54 12.11-1.54 12.11l2.01 4.44 1.32 2.94 7.08 29.23"/><path id="path682" class="shp21" d="M278.83 269.99a1.641 1.641 0 013.28 0c0 .91-.73 1.65-1.64 1.65-.91 0-1.64-.74-1.64-1.65z"/><path id="path684" class="shp21" d="M288.41 264.13c0-.91.74-1.65 1.65-1.65.9 0 1.64.74 1.64 1.65 0 .9-.74 1.64-1.64 1.64-.91 0-1.65-.74-1.65-1.64z"/><path id="path686" class="shp21" d="M286.73 258.55c0-.32.27-.59.59-.59.33 0 .59.27.59.59 0 .33-.26.6-.59.6a.6.6 0 01-.59-.6z"/><path id="path688" class="shp21" d="M284.93 251.81c0-.33.27-.6.59-.6.33 0 .59.27.59.6 0 .32-.26.58-.59.58-.32 0-.59-.26-.59-.58z"/><path id="path690" class="shp21" d="M291.48 247.19a.591.591 0 111.178.002.591.591 0 01-1.178-.002z"/><path id="path692" class="shp21" d="M286.73 270.59c0-.33.27-.6.59-.6.33 0 .59.27.59.6 0 .32-.26.59-.59.59-.32 0-.59-.27-.59-.59z"/><path id="path694" class="shp21" d="M283.07 264.72a.591.591 0 011.18 0c0 .32-.27.59-.59.59-.33 0-.59-.27-.59-.59z"/><path id="path696" class="shp21" d="M294.62 266.36a.591.591 0 111.178.002.591.591 0 01-1.178-.002z"/><path id="path698" class="shp21" d="M292.43 275.19c0-.33.26-.59.59-.59a.591.591 0 11-.59.59z"/><path id="path700" class="shp21" d="M281.74 275.19c0-.33.27-.59.6-.59.32 0 .58.26.58.59 0 .32-.26.59-.58.59a.6.6 0 01-.6-.59z"/><path id="path702" class="shp21" d="M278.5 281.03a1.641 1.641 0 113.282.002 1.641 1.641 0 01-3.282-.002z"/><path id="path704" class="shp21" d="M294.66 285.62c0-.91.74-1.64 1.64-1.64.91 0 1.65.73 1.65 1.64 0 .91-.74 1.64-1.65 1.64-.9 0-1.64-.73-1.64-1.64z"/><path id="path706" class="shp21" d="M286.4 281.62a.591.591 0 111.182.002.591.591 0 01-1.182-.002z"/><path id="path708" class="shp21" d="M292.43 281.62c0-.33.26-.59.59-.59.33 0 .59.26.59.59 0 .33-.26.59-.59.59-.33 0-.59-.26-.59-.59z"/><path id="path710" class="shp21" d="M281.42 286.22c0-.32.26-.59.59-.59.32 0 .59.27.59.59a.591.591 0 01-1.18 0z"/><path id="path712" class="shp21" d="M274.33 286.22c0-.32.26-.59.59-.59.32 0 .59.27.59.59a.591.591 0 01-1.18 0z"/><path id="path714" class="shp21" d="M295.62 260.94c-.27.2-.6.31-.96.31-.91 0-1.64-.73-1.64-1.64 0-.79.55-1.44 1.28-1.61l1.32 2.94"/><path id="path716" class="shp21" d="M294.66 271.64c0-.91.74-1.65 1.64-1.65.91 0 1.65.74 1.65 1.65 0 .91-.74 1.64-1.65 1.64-.9 0-1.64-.73-1.64-1.64z"/><path id="path718" class="shp21" d="M289.32 251.45c0-.46.37-.83.84-.83.46 0 .83.37.83.83 0 .47-.37.84-.83.84-.47 0-.84-.37-.84-.84z"/><path id="path720" class="shp21" d="M281.95 248.41a.781.781 0 011.56 0 .781.781 0 01-1.56 0z"/><path id="path722" class="shp21" d="M282.81 257.96c0 .91-.74 1.65-1.64 1.65-.28 0-.54-.07-.77-.19.39-1.16.75-2.2 1.05-3.07.77.13 1.36.8 1.36 1.61z"/><path id="path724" class="shp21" d="M292.1 242.86c-.46.24-.04 1.01-.62 1.46-.59.45-1.17.32-1.48.92-.31.59-.6 1.05-1.23 1.15-.62.11-.66.6-1.08.77-.42.18-.28-.63-.84-.66-.56-.04-.42-.81-.87-1.12-.46-.32-1.3-.21-1.58-.74-.28-.52-.6-.98-1.47-1.47-.88-.49-.59-1.72-.59-1.72s3.46 3.1 5.11 3.05c2.12-.06 4.81-3.05 4.81-3.05s.3 1.16-.16 1.41z"/><path id="path726" class="shp23" d="M279.67 243.81l2.53.59s1.01.16 1.61.2c.59.04 1.7-.13 2.1.37.39.5 1.79 1.18 1.62 1.33-.16.15-1.86-.54-1.81-.39.05.16.97 1.31 1.6 1.42 1.3.23.81.79.81.79s-1.23.4-1.91.29c-.68-.1-2.14-1.65-2.72-1.81-.59-.16-3.46-.27-3.46-.27l-.37-2.52"/><g id="g728"><path id="path730" class="shp2" d="M526.56 259.36s-8.51 12.76-12.03 20.39c0 0 14.23 2.83 23.32 8.61 0 0 6.31-15.93 11.29-22.84 0 0-13.64-6.15-22.58-6.16"/></g><g id="g732"><path id="path734" d="M537.85 288.36s6.89 1.17 9.31-1.92c2.42-3.09 1.98-20.92 1.98-20.92s-10.59 14.86-11.29 22.84z" fill="#8caaed"/></g><g id="g736"><path id="path738" class="shp32" d="M507.19 245.41s-11.72 5.11-13.85 5.02c-2.13-.09-15.24-4-15.24-4l.33 2.26s10.12 5.82 13.66 6.16c3.48.32 15.39-3.13 16.54-3.86 1.15-.73 1.9-4.84-1.44-5.58z"/></g><g id="g740"><path id="path742" class="shp10" d="M508.95 226.61s4.33-.82 6.48.75c3.9 2.86 4.11 12.68 5.58 14.15 1.46 1.46 4.98.84 5.3 8.41.31 7.58-1.41 8.21.64 11.6 2.04 3.38-.87 6.76-.87 6.76s1.19-1.87.68-3.21c0 0-.49 2.97-2.38 3.67-1.89.7-2.17 1.2-2.47 2.23 0 0-16.11-8.26-16.13-14.12-.01-5.86-3.17-11.66-1.62-14.2 0 0-.69 1.09-.77 2.3 0 0-.93-1.78.68-3.44s-1.89-5.09-1.37-9.06c.35-2.73 2.27-5.72 6.25-5.84"/></g><g id="g744"><path id="path746" class="shp23" d="M505.77 250.99c1.02.72 2.32 1.31 3.94 1.68 6.07 1.41 8.4-3.73 9.28-7.26-.83-.47-1.61-.58-2.06-.63-.44-.05-.9-.09-1.29-.11-.68-.52-1.69-2.66-1.92-5.98l-.28.08-4.8 1.31s.23 1.52.33 2.96c.08 1.13.1 2.2-.12 2.47-.37.08-.59.13-.59.13-.07.11-1.46 2.4-2.49 5.35"/></g><g id="g748"><path id="path750" class="shp32" d="M508.65 240.08s.22 1.52.33 2.96c2.71-.27 3.97-2.86 4.46-4.27l-4.79 1.31"/></g><g id="g752"><path id="path754" class="shp23" d="M507.83 241.51s6.44-.36 6.16-4.36c-.28-4.01.36-6.76-3.76-6.7-4.13.05-4.82 1.64-5.05 3-.23 1.36.98 8.05 2.65 8.06"/></g><g id="g756"><path id="path758" class="shp10" d="M505.22 231.21c.9-1.28 1.67-1.07 2.12-.73 3.37-2.19 5.85.51 5.85.51.63 2.84 2.82 4.34 2.82 4.34s-1.12.81-3.87.31c-.84-.16-1.62-.69-2.3-1.36 1.23 1.76 2.81 2.97 2.81 2.97-3.33-1.26-4.95-5.66-5.11-6.12-.37.38-1.09 1.2-1.27 1.97-.25 1.04-1.32 2.67-1.93 2.64 0 0-.49-2.61.88-4.53"/></g><g id="g760"><path id="path762" class="shp21" d="M520.82 264.09c.58-2.97 2.48-14.85.58-18.68-.68-1.37-3.35-1.5-6.28-1.38-.91.59-4.39 2.82-5.82 2.54-.01 0-.04-.01-.08-.02-.67-.16-.92-.64-.36-1.04 0-.01-1.45-.15-3.26.19-1.02.2-3.76 1.62-3.76 1.62s1.38 2.5 3.42 3.36c-.35 3.11.17 4.47 3.39 11.65 2.72 6.06-.37 11.51-.37 11.51s16.01 12.88 16.1 6.32c.07-4.93-4.3-12.27-3.56-16.07z"/></g><g id="g764"><path id="path766" d="M507.49 287.85c-.88-.1-1.66-.58-2.14-1.31-.08-.12-.16-.24-.25-.37-1.82-2.76-2.53-11.21-6.63-20.22-1-2.19-4.59-2.59-5.56-5.07 0 0-2.41-8.03 4.6-8.27 7.01-.23 18.78 22.36 18.96 24.72.18 2.3 4.63 12.05-8.98 10.52z" fill="#dd6d22"/></g><g id="g768"><path id="path770" class="shp10" d="M479.63 287.66h9.97s.38-1.59-.28-2.68c-.58-.95-.35-1.5.07-2.29-.45.18-1.03.35-1.68.31-.49-.02-1.02-.25-1.48-.52-.43.49-2.27 2.58-2.84 2.99-.65.47-3.56.3-3.76 2.19"/></g><g id="g772"><path id="path774" d="M519.77 248.53s1.3 11.81-7.12 14.29c-8.42 2.48-10.81-10.87-4.02-11.83 6.8-.96 11.14-2.46 11.14-2.46" fill="#ebeef2"/></g><g id="g776"><path id="path778" class="shp20" d="M492.68 254.94c-.6 4.5-2.95 18.72-7.08 25.66-1.34 2.24 3.36 3.5 3.38 3.49.63-.17 1.68-1.17 2.16-1.61 3.36-3.03 10.18-11.6 10.18-18.48 0-3.36.06-9.76-2.37-11.39-1.51-1-6.03.54-6.27 2.33z"/></g><g id="g780"><path id="path782" class="shp6" d="M513.44 287.66s-.37-.51-1.02-1.49c-.76-1.16-1.61-3.45-2.65-6.38-1.08-3.08-2.36-6.87-3.97-10.81a76.86 76.86 0 00-1.58-3.68c-.99-2.19-3.74-1.89-4.72-4.37 0 0-3.81-8.59 3.2-8.83 7.01-.23 20.32 22.99 21.09 25.23.84 2.47 4.93 12.69-10.35 10.33"/></g><g id="g784"><path id="path786" class="shp7" d="M486.95 287.66h9.98s.37-1.59-.28-2.68c-.58-.95-.36-1.5.07-2.29-.45.18-1.04.35-1.68.31-.5-.02-1.03-.25-1.48-.52-.43.49-2.27 2.58-2.85 2.99-.65.47-3.55.3-3.76 2.19"/></g><g id="g788"><path id="path790" class="shp20" d="M509.77 279.79c-1.08-3.08-2.36-6.87-3.97-10.81.42-2.99 1.33-5.6 2.84-6.65 0 0 3.69 11.42 1.13 17.46z"/></g><g id="g792"><path id="path794" class="shp6" d="M498.5 254.62c-.6 4.5-1.44 19.05-5.58 25.98-1.34 2.24 3.36 3.5 3.38 3.49.64-.17 1.68-1.17 2.17-1.61 3.36-3.03 10.18-11.6 10.18-18.48 0-3.36-3.94-9.49-6.37-11.12-1.5-1-3.54-.05-3.78 1.74z"/></g><g id="g796"><path id="path798" class="shp21" d="M506.63 239.2s.61-.24 2.32-.1c0 0-.09.67-1.35.74-.72.03-.97-.64-.97-.64z"/></g><g id="g800"><path id="path802" class="shp19" d="M476.85 241.71l2.07-3.73 4.47 12.49-2.64 2.84-3.9-11.6z"/></g><g id="g804"><path id="path806" class="shp36" d="M487.65 243.9l4.16 11.89-11.06-2.48-3.9-11.6 10.8 2.19"/></g><g id="g808"><path id="path810" class="shp51" d="M491.59 255.19l.19-.34-3.93-11.25-.2.3 3.94 11.29z"/></g><g id="g812"><path id="path814" d="M487.84 243.6l-10.48-2.04-.51.15 10.8 2.19.19-.3" fill="#fcecdb"/></g><g id="g816"><path id="path818" class="shp51" d="M476.85 241.71l2.23-3.55 1.43 4.01-3.15-.61-.51.15"/></g><g id="g820"><path id="path822" class="shp23" d="M484.46 245.62c.35-.07 1.13-.36 1.91-.57-.24-.19-.5-.41-.57-.64-.14-.44-.23-.58.24-.44.46.14 2.08.89 2.08.89.92.27 1.78 1.57 1.78 1.57s11.42 4.02 12.8 4.09c2.13.11 16.29-5.11 16.29-5.11 3.34.74 2.59 4.85 1.44 5.58-1.15.73-11.34 4.43-17.38 4.5-3.06.04-14.18-7.12-14.18-7.12s-1.3-.59-2.33-.4c-1.01.18-3.38 0-3.9-.84-.5-.84 1.21-1.39 1.82-1.51z"/></g><g id="g824"><path id="path826" class="shp21" d="M511.69 247.98s1.27 4.01 5.62 4.93c0 0 7.18-2.21 3.61-7.11 0 0-3.54-2.63-9.23 2.18"/></g><g id="g828"><path id="path830" class="shp23" d="M477.03 245.92h.01c-.01-.11 0-.22.03-.32 0 0 1.03-1.62 1.36-1.69 1.03-.2 1.03 1.14.81 2.01-.15.61-.54 1.19-.85 1.5l.04 1.27c-1.72-.95-1.4-2.77-1.4-2.77z"/></g><g id="g832"><path id="path834" class="shp10" d="M591.38 325.46H16.61c-.36 0-.65-.29-.65-.64v-.21c0-.35.29-.64.65-.64h574.77c.36 0 .65.29.65.64v.21c0 .35-.29.64-.65.64z"/></g></g></g></svg>